<svg id="Layer_2" data-name="Layer 2" xmlns="http://www.w3.org/2000/svg" viewBox="0 0 542.87 928"><defs><style>.cls-1{fill:#666;}</style></defs><title>Right arrow</title><path class="cls-1" d="M524.67,953.89c39.91-34.93,81.49-79.84,131.39-128.07,8.32-15,214.56-212.89,222.88-221.21,31.6-48.23,56.54-38.25,61.53-89.81-5-21.63-16.58-44.17-28.27-56.55-154.68-163-289.4-286.08-324.51-325.81C562.92,114,562.92,94,519.68,60.73c-18.3-11.64-56.55-24.95-93.14,8.32C399.92,99,394.93,150.55,414.89,175.5,521.34,285.27,484.45,226.23,686,459.91c22.64,24,55.22,62.91,54.89,66.53-21.63,46.57-109.78,101.46-144.7,153-26.62,36.59-146.37,121.41-191.28,196.26-12.59,32.9-8.31,56.55,8.32,79.83S479.76,987.15,524.67,953.89Z" transform="translate(-397.61 -48)"/></svg>