<?xml version="1.0" encoding="utf-8"?>
<!-- Generator: Adobe Illustrator 22.0.1, SVG Export Plug-In . SVG Version: 6.00 Build 0)  -->
<svg version="1.1" id="Layer_2" xmlns="http://www.w3.org/2000/svg" xmlns:xlink="http://www.w3.org/1999/xlink" x="0px" y="0px"
	 viewBox="0 0 1280 1024" style="enable-background:new 0 0 1280 1024;" xml:space="preserve">
<style type="text/css">
	.st0{fill:#666666;}
</style>
<path class="st0" d="M885.5,436.8c-23-26.3-52.6-53.7-84.3-86.5C791.3,344.8,661,209,655.5,203.5c-31.8-20.8-25.2-37.2-59.1-40.5
	c-14.2,3.3-29.1,10.9-37.2,18.6C451.8,283.5,370.8,372.2,344.6,395.3c-12.2,16.3-25.3,16.3-47.2,44.8c-7.7,12-16.4,37.2,5.5,61.3
	c19.7,17.5,53.7,20.8,70.1,7.7c72.3-70.1,33.4-45.8,187.3-178.5c15.8-14.9,41.4-36.4,43.8-36.1c30.7,14.2,66.8,72.3,100.8,95.3
	c24.1,17.5,80,96.4,129.2,125.9c21.7,8.3,37.2,5.5,52.6-5.5C901.9,499.2,907.4,466.3,885.5,436.8z"/>
<path class="st0" d="M537.4,333.8c-1.1,42.9,13.5,108.4,18,175.3c-11.5,12.5-4.4,217.7-4,227.2c11.4,45.3-8.2,54.7,19.8,85.9
	c15.6,8.9,35.4,14.3,49.2,14.1c64.3-15.8,59.6-46.6,53.2-139.4c-15.9-38.4-0.3-121-11.9-170.1c-7.2-35.9,7.8-153.7-12.1-221.5
	c-12.7-25.5-29.1-35.9-52.1-38.8C574.5,263.6,542.2,288.8,537.4,333.8z"/>
</svg>
