<svg id="Layer_1" data-name="Layer 1" xmlns="http://www.w3.org/2000/svg" viewBox="0 0 542.87 928"><defs><style>.cls-1{fill:#666;}</style></defs><title>Left arrow</title><path class="cls-1" d="M787.42,954.89C747.5,920,705.92,875.05,656,826.82c-8.32-15-214.56-212.89-222.87-221.21-31.6-48.23-56.55-38.25-61.54-89.81,5-21.63,16.58-44.17,28.27-56.55,154.68-163,289.4-286.08,324.51-325.81,24.77-18.48,24.77-38.44,68-71.71C810.7,50.09,849,36.78,885.55,70.05c26.61,29.94,31.6,81.5,11.64,106.45-106.45,109.77-69.56,50.73-271.11,284.41-22.64,24-55.21,62.91-54.88,66.53C592.82,574,681,628.9,715.9,680.46c26.61,36.59,146.36,121.41,191.27,196.26,12.6,32.9,8.31,56.55-8.32,79.83S832.32,988.15,787.42,954.89Z" transform="translate(-371.61 -49)"/></svg>