<?xml version="1.0" encoding="UTF-8"?>
<!DOCTYPE svg PUBLIC "-//W3C//DTD SVG 1.1//EN" "http://www.w3.org/Graphics/SVG/1.1/DTD/svg11.dtd">
<!-- Creator: CorelDRAW X7 -->
<svg xmlns="http://www.w3.org/2000/svg" xml:space="preserve" width="10.16mm" height="12.7mm" version="1.1" style="shape-rendering:geometricPrecision; text-rendering:geometricPrecision; image-rendering:optimizeQuality; fill-rule:evenodd; clip-rule:evenodd"
viewBox="0 0 1016 1270"
 xmlns:xlink="http://www.w3.org/1999/xlink">
 <defs>
  <style type="text/css">
   <![CDATA[
    .fil0 {fill:#666666;fill-rule:nonzero}
   ]]>
  </style>
 </defs>
 <g id="Layer_x0020_1">
  <metadata id="CorelCorpID_0Corel-Layer"/>
  <path class="fil0" d="M561 132c26,0 53,27 79,80 53,106 80,158 80,185l106 159c26,53 52,79 52,105 0,27 -26,53 -79,106 -53,80 -132,159 -238,291 -53,53 -79,80 -106,80 -53,0 -79,-27 -106,-106 -53,-132 -132,-238 -158,-318 -53,-26 -53,-53 -53,-79 0,-53 0,-79 53,-132l132 -133c0,0 53,-79 106,-158 53,-53 105,-80 132,-80z"/>
 </g>
</svg>
