<svg id="Layer_2" data-name="Layer 2" xmlns="http://www.w3.org/2000/svg" viewBox="0 0 901.87 928"><defs><style>.cls-1{fill:#666;}</style></defs><title>x button</title><path class="cls-1" d="M335.67,943.89c39.91-34.93,81.49-79.84,131.39-128.07,8.32-15,214.56-212.89,222.88-221.21,31.6-48.23,56.54-38.25,61.53-89.81-5-21.63-16.58-44.17-28.27-56.55-154.68-163-289.4-286.08-324.51-325.81C373.92,104,373.92,84,330.68,50.73c-18.3-11.64-56.55-24.95-93.14,8.32C210.92,89,205.93,140.55,225.89,165.5,332.34,275.27,295.45,216.23,497,449.91c22.64,24,55.22,62.91,54.89,66.53-21.63,46.57-109.78,101.46-144.7,153-26.62,36.59-146.37,121.41-191.28,196.26-12.59,32.9-8.31,56.55,8.32,79.83S290.76,977.15,335.67,943.89Z" transform="translate(-208.61 -38)"/><path class="cls-1" d="M983.42,943.89C943.5,909,901.92,864.05,852,815.82c-8.32-15-214.56-212.89-222.87-221.21-31.6-48.23-56.55-38.25-61.54-89.81,5-21.63,16.58-44.17,28.27-56.55,154.68-163,289.4-286.08,324.51-325.81,24.77-18.48,24.77-38.44,68-71.71,18.29-11.64,56.55-24.95,93.14,8.32,26.61,29.94,31.6,81.5,11.64,106.45-106.45,109.77-69.56,50.73-271.11,284.41-22.64,24-55.21,62.91-54.88,66.53C788.82,563,877,617.9,911.9,669.46c26.61,36.59,146.36,121.41,191.27,196.26,12.6,32.9,8.31,56.55-8.32,79.83S1028.32,977.15,983.42,943.89Z" transform="translate(-208.61 -38)"/></svg>