<?xml version="1.0" encoding="UTF-8"?>
<!DOCTYPE svg PUBLIC "-//W3C//DTD SVG 1.1//EN" "http://www.w3.org/Graphics/SVG/1.1/DTD/svg11.dtd">
<!-- Creator: CorelDRAW X7 -->
<svg xmlns="http://www.w3.org/2000/svg" xml:space="preserve" width="115mm" height="115mm" version="1.1" style="shape-rendering:geometricPrecision; text-rendering:geometricPrecision; image-rendering:optimizeQuality; fill-rule:evenodd; clip-rule:evenodd"
viewBox="0 0 11500 11500"
 xmlns:xlink="http://www.w3.org/1999/xlink">
 <defs>
  <style type="text/css">
   <![CDATA[
    .fil0 {fill:#666666}
   ]]>
  </style>
 </defs>
 <g id="Layer_x0020_1">
  <metadata id="CorelCorpID_0Corel-Layer"/>
  <path class="fil0" d="M1397 2764c834,47 2118,-196 3422,-243 236,231 4235,217 4419,216 887,-194 1059,192 1683,-333 183,-298 301,-679 306,-948 -270,-1261 -871,-1189 -2682,-1121 -757,286 -2355,-68 -3318,128 -703,118 -2987,-246 -4318,101 -504,231 -717,545 -786,990 -69,445 402,1090 1274,1210zm8684 1747c-834,-32 -2113,234 -3417,307 -241,-228 -4239,-138 -4422,-133 -884,211 -1063,-174 -1677,364 -177,302 -288,687 -287,955 292,1256 893,1172 2702,1071 753,-300 2357,23 3315,-189 701,-132 2992,190 4316,-182 501,-242 707,-559 768,-1006 60,-447 -424,-1082 -1298,-1187zm-8684 6679c834,48 2118,-195 3422,-243 236,232 4235,218 4419,216 887,-194 1059,193 1683,-332 183,-298 301,-680 306,-948 -270,-1262 -871,-1189 -2682,-1122 -757,287 -2355,-67 -3318,129 -703,118 -2987,-247 -4318,101 -504,231 -717,545 -786,990 -69,445 402,1090 1274,1209z"/>
 </g>
</svg>
