<?xml version="1.0" encoding="UTF-8"?>
<!DOCTYPE svg PUBLIC "-//W3C//DTD SVG 1.1//EN" "http://www.w3.org/Graphics/SVG/1.1/DTD/svg11.dtd">
<!-- Creator: CorelDRAW X7 -->
<svg xmlns="http://www.w3.org/2000/svg" xml:space="preserve" width="1181px" height="1181px" version="1.1" style="shape-rendering:geometricPrecision; text-rendering:geometricPrecision; image-rendering:optimizeQuality; fill-rule:evenodd; clip-rule:evenodd"
viewBox="0 0 1181 1181"
 xmlns:xlink="http://www.w3.org/1999/xlink">
 <defs>
  <style type="text/css">
   <![CDATA[
    .fil0 {fill:#666666}
   ]]>
  </style>
 </defs>
 <g id="Layer_x0020_1">
  <metadata id="CorelCorpID_0Corel-Layer"/>
  <path class="fil0" d="M852 676c-13,-6 -60,-22 -84,-44 -12,-4 -17,-6 -33,5 -7,6 -16,14 -23,29 -7,9 -12,21 -16,25 -7,9 -14,9 -27,3 -10,-5 -39,-10 -73,-34 -10,-7 -19,-19 -30,-28 -19,-18 -31,-39 -47,-53 -16,-12 -20,-29 -23,-35 -7,-12 -1,-19 5,-25 6,-6 13,-15 20,-22 1,-3 3,-5 4,-6 3,-5 5,-9 8,-16 5,-8 2,-15 -1,-22 0,-1 -1,-13 -9,-26 -8,-7 -5,-33 -13,-42 -5,-9 -14,-19 -17,-25 -11,-26 -21,-21 -29,-21 -7,0 -16,-1 -24,-1 -9,0 -22,3 -34,15 -7,8 -25,27 -34,43 -7,16 -6,45 -10,63 0,14 2,29 6,43 3,10 2,23 6,32 14,30 36,50 40,55 2,3 23,38 49,57 25,22 61,62 95,83 27,17 41,38 73,51 26,10 47,23 64,29 65,20 70,4 88,2 13,1 31,-1 51,-16 11,-14 30,-22 35,-44 1,-4 5,-6 6,-10 7,-24 4,-45 1,-50 -3,-5 -11,-8 -24,-15zm281 -117c-1,-25 -8,-52 -21,-74 -12,-15 -16,-162 -102,-234 -53,-68 -127,-99 -201,-148 -53,-32 -125,-51 -194,-51 -80,-2 -67,9 -99,15 -63,12 -116,58 -174,77 -228,179 -238,231 -245,406 -1,8 -1,15 -1,23 0,97 27,188 74,265l-93 276 287 -91c18,10 32,10 52,18 33,13 56,27 93,34 29,5 75,12 106,12 43,0 84,-19 124,-29 93,-22 172,-75 237,-137 19,-3 29,-17 40,-30 73,-85 117,-195 117,-318 0,-5 0,-9 0,-14zm-518 450l0 0c-44,0 -86,3 -126,-9 -34,-11 -66,-37 -97,-58 -9,-11 -13,-9 -17,-8 -24,7 -46,25 -70,32 -23,5 -42,14 -65,19 -11,0 -22,4 -33,2 3,-7 1,-14 4,-21 9,-16 16,-33 20,-49 3,-10 3,-19 7,-30 4,-13 13,-28 17,-42 1,-3 4,-7 5,-10 1,-3 2,-6 2,-9 -1,-7 -4,-13 -9,-20 2,-3 -4,-11 -12,-14 -12,-9 -27,-40 -34,-56 -9,-22 -20,-60 -26,-68 2,-23 -2,-64 -2,-95 0,-15 0,-29 2,-42 2,-24 24,-55 24,-79 1,-36 26,-109 61,-156 51,-46 138,-124 231,-135 46,-6 80,-14 118,-21 19,0 40,5 59,7 48,-5 79,16 115,32 35,21 74,37 104,62 18,16 29,38 45,56 39,44 77,84 97,139 10,30 11,70 14,103 1,11 2,22 2,34 0,72 -18,154 -64,200 -30,47 -67,111 -111,149 -63,84 -151,76 -261,87z"/>
 </g>
</svg>
