<?xml version="1.0" encoding="UTF-8"?>
<!DOCTYPE svg PUBLIC "-//W3C//DTD SVG 1.1//EN" "http://www.w3.org/Graphics/SVG/1.1/DTD/svg11.dtd">
<!-- Creator: CorelDRAW X7 -->
<svg xmlns="http://www.w3.org/2000/svg" xml:space="preserve" width="1181px" height="1181px" version="1.1" style="shape-rendering:geometricPrecision; text-rendering:geometricPrecision; image-rendering:optimizeQuality; fill-rule:evenodd; clip-rule:evenodd"
viewBox="0 0 1181 1181"
 xmlns:xlink="http://www.w3.org/1999/xlink">
 <defs>
  <style type="text/css">
   <![CDATA[
    .fil0 {fill:#666666}
   ]]>
  </style>
 </defs>
 <g id="Layer_x0020_1">
  <metadata id="CorelCorpID_0Corel-Layer"/>
  <path class="fil0" d="M516 218c57,14 180,0 262,-2 31,7 52,-5 71,11 22,13 97,12 134,48 0,0 0,1 -1,1 -51,91 -79,144 -156,218 -112,91 -226,163 -241,159 -16,7 -121,-79 -226,-169 -40,-27 -95,-73 -123,-113 -19,-27 -19,-51 -34,-63 -7,-16 -10,-21 -14,-32 -5,-12 11,-35 45,-44 38,1 99,-12 122,-4 55,4 40,-10 161,-10zm481 628c-26,29 -37,36 -77,52 -16,5 -38,10 -71,11 -28,1 -93,-6 -170,-5 -57,0 -139,2 -173,8 -31,12 -94,3 -119,3 -23,0 -40,-5 -63,-6 -35,-1 -57,-6 -73,-11 -35,-10 -59,-30 -76,-52 -8,-11 -15,-23 -21,-38 -6,-16 -13,-40 -15,-84 -2,-48 -3,-29 -3,-149 0,-121 1,-115 3,-163 0,-13 1,-25 3,-35 46,81 63,89 112,127 36,45 67,97 119,123 2,1 70,49 72,50 65,44 88,51 139,57 20,1 54,-34 135,-66 32,-21 37,-7 53,-23 38,-22 77,-65 102,-101 39,-53 72,-97 103,-127 17,-7 35,-27 50,-26 6,0 6,6 7,21 2,48 2,42 2,163 0,120 0,101 -2,149 -2,44 -10,68 -16,84 -6,15 -12,27 -21,38zm-491 -703l0 0c-122,0 -138,0 -186,3 -28,1 -49,-4 -86,3 -20,3 -41,7 -53,11 -42,10 -57,28 -82,53 -56,48 -23,92 -42,195 -1,34 7,45 4,87 -2,26 2,46 -1,80 3,81 -5,105 -3,153 1,14 -2,38 -1,51 2,17 8,32 11,44 3,11 10,48 18,56 13,36 14,37 39,62 25,25 52,17 82,28 33,5 71,2 118,13 56,11 66,-1 184,5 37,0 74,-1 121,-4 101,6 190,9 223,7 54,2 87,-4 116,-15 11,-8 25,-15 43,-23 17,-8 28,-10 42,-24 17,-17 33,-29 42,-48 4,-8 2,-23 6,-32 9,-23 16,-55 18,-93 0,-8 -4,-19 -4,-27 2,-48 -12,-74 -3,-151 10,-80 2,-107 3,-130 1,-12 1,-22 0,-39 -1,-14 2,-24 2,-37 -2,-28 -7,-55 -12,-78 -5,-37 -15,-65 -31,-86 -15,-32 -55,-53 -100,-61 -37,-6 -75,-1 -122,0 -48,-3 -223,-3 -346,-3z"/>
 </g>
</svg>
