<?xml version="1.0" encoding="UTF-8"?>
<!DOCTYPE svg PUBLIC "-//W3C//DTD SVG 1.1//EN" "http://www.w3.org/Graphics/SVG/1.1/DTD/svg11.dtd">
<!-- Creator: CorelDRAW X7 -->
<svg xmlns="http://www.w3.org/2000/svg" xml:space="preserve" width="1181px" height="1181px" version="1.1" style="shape-rendering:geometricPrecision; text-rendering:geometricPrecision; image-rendering:optimizeQuality; fill-rule:evenodd; clip-rule:evenodd"
viewBox="0 0 1181 1181"
 xmlns:xlink="http://www.w3.org/1999/xlink">
 <defs>
  <style type="text/css">
   <![CDATA[
    .fil0 {fill:#666666}
   ]]>
  </style>
 </defs>
 <g id="Layer_x0020_1">
  <metadata id="CorelCorpID_0Corel-Layer"/>
  <path class="fil0" d="M642 954c-13,18 -34,52 -52,58 -31,1 -109,-257 -109,-249 39,-1 68,-2 109,-3 -5,0 2,-50 -4,-50 -36,0 -78,-4 -113,-4 -11,-103 3,-219 3,-247 74,3 153,6 228,8 7,1 1,88 6,128 13,5 28,14 67,35 -4,-45 -4,-125 -4,-160 133,4 238,5 240,-3 4,24 6,50 7,72 1,11 2,22 2,33 0,43 -7,90 -22,131 -20,0 -48,0 -81,1 -2,0 -4,-1 -4,0 0,0 0,2 0,2 5,8 18,45 20,45 1,1 4,0 8,0 14,-1 41,-4 46,-4 4,2 23,17 42,28 12,8 16,16 20,17 3,-2 12,-25 17,-37 22,-56 35,-117 35,-183 0,-4 0,-8 0,-13 -1,-24 -8,-51 -21,-73 -12,-14 -16,-159 -100,-230 -52,-66 -125,-97 -198,-145 -52,-32 -122,-51 -191,-51 -78,-1 -65,10 -96,15 -63,12 -115,58 -172,76 -224,176 -234,227 -241,399 0,8 -1,15 -1,22 0,96 27,185 73,262 19,21 42,46 68,67 40,42 82,86 123,114 18,10 32,10 51,18 33,13 55,27 91,33 29,5 74,12 104,12 23,0 63,-8 85,-14 -7,-7 -24,-83 -30,-108 -1,-9 0,-9 -6,-2zm54 -797c35,13 46,18 69,28 34,21 72,37 102,62 18,15 29,37 45,55 28,32 43,60 63,96 1,-4 -92,-2 -210,1 -9,-63 -37,-182 -69,-242zm-109 -4c49,40 98,92 102,242 -67,1 -138,2 -204,3 13,-69 36,-211 102,-245zm-109 15c-5,0 -55,199 -64,228 -118,2 -216,6 -215,3 10,-25 36,-78 51,-98 51,-46 136,-122 228,-133zm-73 288c-2,0 8,249 6,249 -111,0 -204,0 -229,-1 -6,-17 -11,-33 -15,-38 2,-22 -2,-62 -2,-94 0,-13 0,-27 2,-41 2,-24 24,-53 24,-77 0,-5 92,-3 214,2zm5 308c-3,0 42,153 77,233 -4,-1 -13,-3 -17,-4 -34,-11 -65,-37 -96,-57 -59,-37 -105,-112 -163,-167 -1,-1 81,-3 199,-5z"/>
  <path class="fil0" d="M1063 843c-1,-4 -38,-22 -62,-35 -97,-49 -235,-111 -288,-154 -31,-17 -80,-45 -92,-38 -29,19 7,169 28,204 22,48 85,283 95,277 7,3 34,-39 60,-81 13,-20 27,-56 35,-53 11,-3 31,37 55,67 20,26 41,53 55,71 10,13 16,22 17,22 1,0 16,-14 29,-23 16,-12 42,-36 42,-38 0,0 -3,-3 -5,-6 -16,-18 -58,-66 -94,-111 -11,-13 -32,-30 -29,-37 5,-8 43,-19 67,-29 42,-17 87,-32 87,-36z"/>
 </g>
</svg>
