<?xml version="1.0" encoding="UTF-8"?>
<!DOCTYPE svg PUBLIC "-//W3C//DTD SVG 1.1//EN" "http://www.w3.org/Graphics/SVG/1.1/DTD/svg11.dtd">
<!-- Creator: CorelDRAW X7 -->
<svg xmlns="http://www.w3.org/2000/svg" xml:space="preserve" width="1181px" height="1181px" version="1.1" style="shape-rendering:geometricPrecision; text-rendering:geometricPrecision; image-rendering:optimizeQuality; fill-rule:evenodd; clip-rule:evenodd"
viewBox="0 0 1181 1181"
 xmlns:xlink="http://www.w3.org/1999/xlink">
 <defs>
  <style type="text/css">
   <![CDATA[
    .fil0 {fill:#666666}
   ]]>
  </style>
 </defs>
 <g id="Layer_x0020_1">
  <metadata id="CorelCorpID_0Corel-Layer"/>
  <path class="fil0" d="M937 307c0,-9 -3,-18 -7,-25 -3,-10 -10,-18 -17,-21 -5,-2 -9,-8 -15,-10 -6,-5 -16,-7 -24,-7 -4,0 -14,-1 -25,4 -7,1 -12,6 -15,8 -4,1 -11,9 -16,18 -2,5 -4,14 -3,17 -3,2 -3,13 -3,16 -2,8 0,16 3,23 4,5 6,11 10,16 3,3 10,9 11,9 7,6 13,13 20,14 6,1 12,1 18,1 8,0 15,-2 21,-4 10,-7 20,-10 23,-13 0,-2 3,-2 4,-6 7,-6 8,-13 12,-20 4,-6 3,-13 3,-20zm-342 10c-43,-4 -52,12 -89,16 -25,8 -46,14 -68,36 -34,24 -59,58 -75,97 -19,38 -40,64 -36,120 0,30 20,81 29,107 19,57 46,87 90,114 39,24 94,47 149,47 56,0 107,-27 150,-58 56,-26 81,-73 97,-127 8,-27 22,-53 22,-83 0,-68 -30,-115 -71,-162 -35,-59 -117,-107 -198,-107zm0 443l0 0c-26,-6 -41,-7 -74,-6 -55,-18 -71,-59 -89,-94 -15,-11 -21,-44 -18,-73 6,-16 -4,-32 0,-47 6,-18 8,-30 20,-47 11,-37 56,-49 78,-64 12,-5 3,-7 20,-15 25,-5 44,-13 65,-9 42,0 100,6 119,43 32,28 47,69 47,101 2,12 3,24 3,37 0,20 -5,39 -6,63 -2,23 -13,40 -25,53 -15,10 -25,26 -32,31 -28,27 -45,26 -62,27 -15,0 -30,0 -46,0zm-9 -607c65,-15 149,2 219,3 64,-4 90,8 109,15 24,9 41,21 61,44 34,30 32,49 36,65 1,27 16,45 15,98 3,56 13,68 10,206 0,140 4,143 -15,213 -2,51 -11,79 -18,97 -4,41 -29,52 -39,71 -27,15 -34,12 -60,29 -19,7 -27,24 -97,18 -56,2 -112,27 -212,3 -49,-9 -74,-8 -211,-3 -54,1 -77,5 -100,-1 -30,-3 -53,-11 -71,-32 -16,-20 -24,-42 -30,-74 -4,-23 -27,-77 -20,-106 -4,-33 -10,-60 -13,-97 3,-58 7,-72 10,-116 -1,-83 3,-112 8,-154 -3,-20 1,-36 2,-57 0,-19 10,-29 13,-52 -1,-18 2,-29 5,-45 3,-16 10,-27 16,-38 8,-10 14,-14 23,-23 18,-18 38,-19 60,-39 18,-7 46,-15 97,-18 91,-13 85,0 202,-7zm9 -90l0 0c-142,0 -159,1 -215,3 -56,3 -94,12 -127,25 -44,10 -64,31 -93,60 -24,36 -40,31 -67,87 -18,31 -15,62 -17,132 7,27 -1,72 2,107 4,43 -8,86 -6,109 -6,112 9,169 4,216 2,55 19,89 24,126 15,49 22,57 60,93 29,29 58,47 93,60 33,13 71,22 127,25 56,2 73,3 215,3 142,0 160,-1 216,-3 56,-3 94,-12 127,-25 34,-13 76,-24 105,-53 29,-29 34,-65 48,-100 13,-33 11,-85 13,-141 11,-23 14,-59 14,-201 -9,-129 -16,-169 -15,-228 3,-27 1,-81 -12,-115 -14,-34 -37,-93 -54,-98 -19,-33 -48,-56 -82,-70 -18,-7 -40,-4 -59,-14 -1,-5 -32,-14 -58,-15 -56,-2 -101,17 -243,17z"/>
 </g>
</svg>
