<?xml version="1.0" encoding="UTF-8"?>
<!DOCTYPE svg PUBLIC "-//W3C//DTD SVG 1.1//EN" "http://www.w3.org/Graphics/SVG/1.1/DTD/svg11.dtd">
<!-- Creator: CorelDRAW X7 -->
<svg xmlns="http://www.w3.org/2000/svg" xml:space="preserve" width="512px" height="512px" version="1.1" style="shape-rendering:geometricPrecision; text-rendering:geometricPrecision; image-rendering:optimizeQuality; fill-rule:evenodd; clip-rule:evenodd"
viewBox="0 0 512 512"
 xmlns:xlink="http://www.w3.org/1999/xlink">
 <defs>
  <style type="text/css">
   <![CDATA[
    .fil0 {fill:#EF2C2A}
   ]]>
  </style>
 </defs>
 <g id="Layer_x0020_1">
  <metadata id="CorelCorpID_0Corel-Layer"/>
  <path class="fil0" d="M163 328c-5,5 -8,9 -13,13 -6,7 -8,8 -13,14 -5,7 -10,13 -17,23 -8,14 -10,19 -20,29 -4,4 -8,7 -12,8 -6,1 -9,-4 -11,-6 -5,-8 -7,-15 -6,-22 2,-4 2,-5 7,-10 5,-2 10,-10 11,-10 5,-7 4,-5 10,-15 8,-16 16,-30 22,-56 2,-7 2,-12 0,-13 -4,-2 -5,-1 -10,1 -1,1 -4,4 -5,5 -3,4 -4,5 -8,8 -1,1 -10,13 -12,14l-27 31c-9,9 -9,11 -12,14 -1,3 1,6 -2,23 0,4 1,4 1,9 0,13 -1,26 -1,39 1,18 3,23 12,29 16,6 15,2 37,3 13,1 27,-1 40,1l31 -1c28,-1 45,-1 72,2 20,1 31,1 45,1 16,0 31,0 46,0 15,0 30,1 45,1 17,0 58,3 73,-7l5 -3c7,-8 7,-30 7,-40 -1,-7 0,-16 -1,-23 -1,-13 -2,-53 -2,-67 0,-13 -2,-54 0,-66 2,-14 1,-28 3,-43 0,-4 0,-8 0,-11 0,-7 -1,-5 -1,-10 1,-7 1,-15 1,-22 0,-8 -1,-14 -1,-22 0,-15 -1,-30 -1,-44 -1,-8 -1,-15 -1,-22l-4 -20c-1,-5 -6,-11 -12,-11 -6,0 -16,-1 -20,0 -7,1 -37,0 -46,-1 -5,-1 -82,2 -96,3 -9,0 -4,1 -17,1 -7,0 -32,0 -36,2l-14 0c-14,0 -25,0 -40,0 -13,-1 -29,-2 -41,0 -9,2 -20,2 -30,2 -4,0 -7,-1 -11,-1 -8,0 -6,1 -17,3 -8,-1 -11,6 -13,8 -1,4 -4,7 -5,11 -6,15 -4,15 -6,27 -2,6 0,9 1,15 1,21 -2,48 -1,65l0 67c0,10 1,21 1,32 0,5 -1,7 0,28 1,-1 15,-16 15,-16 1,-3 17,-19 20,-23 21,-22 26,-28 41,-47 4,-5 6,-8 9,-13 2,-7 2,-8 5,-11 3,-3 6,-3 9,0 5,6 6,10 8,14 4,11 5,17 1,22 -4,2 -8,5 -11,7 -5,5 -8,9 -13,13 7,-1 7,-1 12,0 6,2 6,4 8,6 3,5 3,6 -5,27 -2,8 -2,10 -8,30 12,-12 22,-22 36,-35 14,-13 25,-23 42,-37 7,-5 13,-12 22,-12 6,0 12,2 15,2 18,6 20,8 22,11 1,2 0,4 -4,11 -2,3 -2,5 -3,11 -1,11 -1,15 5,38 7,30 17,44 28,55 19,19 27,21 34,25 12,8 22,12 31,16 8,3 14,7 23,10 16,6 27,10 43,13 -12,0 -24,0 -45,-2 -21,-2 -27,-1 -55,-9 -17,-5 -22,-7 -41,-20 -10,-8 -16,-15 -22,-21 -3,-3 -4,-5 -7,-9 -4,-6 -5,-8 -9,-15 -5,-10 -9,-17 -12,-29 -4,-10 -6,-26 -8,-39 1,-1 0,-11 -1,-13 -6,-4 -7,-3 -10,-2 -5,3 -5,3 -11,7 -5,5 -7,7 -20,19 -12,12 -12,13 -29,30zm183 -22c1,0 1,0 1,0 0,0 0,0 1,0 2,0 9,-1 13,-2 6,-1 12,-1 18,-2 6,-1 10,-1 14,-1 7,0 13,-1 19,-1 3,1 3,3 3,4 1,3 1,4 1,8 0,5 0,6 -1,11 -1,7 -1,9 -3,16 0,3 -2,5 -4,8 -1,1 -10,-2 -17,-5 -1,0 -1,0 -2,2 1,1 1,2 2,2 2,3 2,3 4,5 1,3 2,4 3,5 2,3 3,5 5,8 1,3 1,4 3,4 2,1 3,0 4,0 2,-1 12,-7 15,-13 2,-4 4,-8 6,-17 0,-3 0,-5 1,-9 1,-10 -1,-20 7,-27 0,-3 -6,-6 -10,-9 -4,-2 -8,-4 -11,-4 -3,-1 -5,0 -10,0 -10,1 -11,2 -22,3 -17,1 -17,1 -29,2 -5,1 -12,2 -15,3 -1,0 -2,0 -2,-1 -1,0 0,-3 0,-7 3,2 6,2 8,2 12,-1 20,-2 30,-4 4,-1 8,-1 9,-2 0,-1 0,-4 -3,-7 -1,-1 -3,-1 -6,-2 -2,0 -4,0 -7,0 -5,1 -11,2 -13,2 -4,1 -5,1 -9,2 -4,0 -6,1 -9,1l0 -7c2,2 20,-4 32,-4 4,0 2,0 4,0 2,2 3,2 4,2 2,0 3,0 6,-1 1,0 2,0 3,-2 2,-4 6,-11 9,-16 2,-4 0,0 3,-7 1,-2 2,-4 4,-6 1,-1 3,-2 3,-3 0,-2 -6,-6 -12,-8 -5,-2 -9,-4 -10,-3 -1,-1 -5,1 -10,2 -6,2 -13,3 -16,4 -5,0 -8,1 -13,2 2,-1 4,-3 6,-4l7 -4c6,-4 7,-5 14,-9 2,-2 10,-2 6,-7 -2,-2 -5,-4 -8,-6 -6,-1 -12,-3 -15,-2 -1,0 -2,1 -1,5 1,1 1,2 1,3 0,1 -2,4 -4,7 -2,4 -5,7 -7,10 -3,3 -5,5 -7,7 -2,-1 -3,-1 -5,-2 -2,0 -4,-1 -8,-1 -1,0 -3,0 -4,1 -1,1 -1,1 -1,3 1,1 2,2 3,4 0,1 1,4 1,7 0,5 0,6 0,17 0,4 0,9 0,12 0,18 -2,17 -2,24 1,5 1,6 4,8 2,5 6,4 7,4 2,-1 3,-1 8,-4 0,1 0,1 0,2 0,0 0,1 0,1 0,0 0,1 0,1 0,0 1,0 1,0 0,1 1,2 1,3 1,4 1,9 1,20 -3,1 -12,3 -16,4 0,-2 1,-5 2,-7 0,-3 1,-5 0,-6 -1,-1 -3,-2 -6,-3 -4,-3 -9,-4 -11,-4 -1,1 -1,2 -1,3 0,0 0,0 1,1 1,2 1,4 2,7 0,7 -2,10 -4,12 -2,4 0,7 2,10 3,3 5,4 7,4 6,-3 7,-3 11,-5 12,-5 13,-4 19,-6 4,-1 16,-3 21,-4 0,2 0,3 2,5 2,4 4,5 8,2 3,-2 3,-4 5,-11 1,-4 1,-4 1,-9 1,-1 1,-3 2,-4 1,-1 1,-2 1,-2 0,-2 -2,-3 -5,-4 -6,-3 -11,-4 -14,-4 -1,1 -2,1 -1,2 0,0 0,1 0,2 1,0 1,1 1,1 1,1 1,3 1,6 0,3 0,4 0,6 -2,0 -11,1 -16,2 1,-5 2,-15 3,-17 0,-1 1,-2 0,-3 -2,-2 -10,-5 -14,-6zm-5 -63l0 8c8,-2 9,-2 19,-5 3,-1 5,-1 8,0 3,1 5,2 5,5 0,1 1,2 0,3 -5,1 -17,3 -25,4 -3,0 -5,0 -8,-1 0,4 0,5 0,9 6,-1 9,-2 23,-4 3,-1 4,-1 8,-2 1,-1 4,-1 7,2 1,-4 2,-7 3,-11 0,-3 1,-6 1,-9 1,-2 1,-4 0,-4 -2,-1 -5,-1 -8,-1 -7,1 -15,2 -33,6zm30 -123c2,3 3,8 4,12 2,6 2,13 3,19 0,5 1,10 2,16 1,6 1,11 2,14 1,3 3,5 7,6 5,1 5,-1 6,-3 1,-3 0,-4 0,-6 8,-1 12,-2 22,-3 7,0 8,0 15,0 1,0 2,0 2,-1 1,-2 -4,-7 -5,-8 3,-13 4,-19 9,-29 0,0 1,-2 3,-5 2,-3 3,-6 3,-9 0,-2 -3,-4 -5,-5 -4,-2 0,0 -7,-4 -6,-3 -7,-3 -10,-3 -7,0 -6,5 -22,7 -4,0 -7,1 -11,2 -5,-4 -10,-3 -12,-4 -3,0 -4,0 -5,0 -2,-3 -8,-6 -11,-8 -3,-2 -7,-4 -8,-4 -2,0 -5,2 -8,3 -3,1 -5,2 -7,2 2,-7 2,-8 4,-16 1,-7 4,-10 5,-14 4,-3 2,-6 -7,-10 -5,-2 -7,-3 -11,-3 -2,0 -3,2 -2,5 3,2 1,16 0,20 -3,16 -3,17 -4,21 -11,2 -12,2 -24,3l-5 1c-1,0 -1,2 3,6 2,1 3,2 7,3 4,0 10,-3 17,-5 -1,5 -2,8 -4,15 -2,4 -2,4 -3,8 -2,6 -4,11 -6,14 -6,16 -9,20 -12,24 -3,5 -7,9 -10,13 0,1 -1,2 -2,3 -1,1 -1,2 -1,2 1,0 2,-1 4,-2 6,-3 10,-7 13,-10 3,-2 4,-4 6,-6 6,-7 6,-8 10,-15 7,-12 10,-20 14,-30 2,-7 2,-7 4,-14 1,-2 1,-3 2,-5 2,0 2,0 5,0 2,0 4,0 6,0 2,0 3,1 4,3 1,5 0,11 -1,20 -2,7 -3,14 -5,21 -3,12 -6,16 -8,18 -2,1 -5,0 -8,-1 -3,-1 -6,-2 -6,-2 0,1 -1,2 1,3 1,1 2,2 2,4 5,6 4,7 6,10 2,3 2,6 5,6 4,-1 12,-6 17,-16 0,0 4,-10 5,-17 2,-5 3,-10 4,-22 1,-6 2,-11 2,-16 2,-4 5,-7 6,-8zm21 10c0,5 0,7 1,17 0,7 0,15 2,21 1,-1 1,-1 5,-1 3,-1 6,-1 9,-1 3,-1 4,-1 5,-2 0,-1 1,-2 1,-4 1,-4 1,-4 1,-6 0,-4 1,-8 2,-11 0,-5 1,-10 1,-13 0,-1 0,-2 -1,-2 0,-1 -2,-1 -5,-1 -6,1 -15,4 -21,3zm-222 378c7,0 17,-2 21,-2l31 -1c9,-1 19,1 29,1 10,-1 39,1 52,-1 9,-1 16,-1 25,-1 7,0 43,-2 49,-3 7,-1 41,1 52,0l24 -2c16,-3 10,-3 19,-7 1,-1 13,-3 18,-9 9,-12 6,-13 7,-20 0,-4 1,-7 2,-11l-1 -90c0,-6 0,-21 -1,-26 -5,-32 -1,-68 0,-102 0,-9 0,-17 0,-26l-1 -26c0,-8 2,-18 1,-25 -3,-18 0,-17 0,-24 1,-6 -2,-19 -1,-25 2,-15 -1,-24 -2,-37 -1,-5 -2,-6 -2,-11 0,-19 -1,-13 -4,-25 -1,-2 0,-1 -1,-3 -4,-8 -8,-9 -13,-12 -4,-3 -10,-6 -12,-8 -3,-4 -4,-4 -10,-5 -3,0 -7,-1 -11,-1 -13,0 -13,0 -25,2 -3,1 -44,3 -50,3 -7,0 -8,1 -13,1 -3,1 -8,0 -12,1 -12,0 -17,2 -22,2 -10,-1 -18,0 -27,-1 -14,-1 -21,2 -35,3 -7,0 -8,2 -22,0 -4,0 -9,0 -12,0 -5,0 -10,0 -16,0l-35 0c-7,0 -4,-1 -11,-1 -3,0 -4,0 -7,-1 -15,-1 -40,-2 -57,-1 -5,1 -7,1 -11,2 -14,4 -8,3 -23,6 -5,0 -9,1 -14,2 -6,2 -12,5 -19,8 -5,3 -6,6 -10,12 -7,12 -1,4 -4,16 -1,7 -3,14 -6,33 0,9 0,17 -1,28 0,10 1,7 0,20 -1,5 0,10 0,15 0,10 0,20 1,30 0,11 2,12 2,26 0,17 -2,42 -2,59 0,9 1,20 1,30 -1,18 -2,24 0,42 0,3 -1,10 -2,15 6,-1 8,-6 14,-11 19,-15 9,-13 13,-35 1,-5 0,-61 0,-71 0,-7 0,-15 0,-23 0,-8 -2,-14 -2,-23 0,-7 -1,-14 -1,-22 0,-4 1,-8 1,-12 -2,-9 -1,-40 -1,-55 -2,-18 -3,-48 16,-60 7,-5 21,-4 31,-5l22 0c15,0 36,2 52,1 6,0 7,1 13,1 4,0 8,-1 13,-1 22,2 43,0 64,-1 7,0 13,0 20,0 18,0 79,-2 92,0 7,0 37,-1 42,0 8,1 14,-1 21,-1 7,1 14,1 21,1 19,1 19,8 22,12 2,2 4,2 3,6 -1,11 0,4 1,10 0,2 0,2 0,4 0,3 0,2 0,4 2,9 1,14 0,21l2 85c0,7 0,16 0,23 -1,6 1,14 1,21 0,14 0,29 0,43 0,19 -3,82 2,96 3,19 3,35 2,49 -1,4 -2,14 -3,19l-6 17c-4,12 -8,18 -26,20 -35,6 -34,4 -62,4 -19,-1 -39,0 -59,-1 -5,1 -11,0 -16,0 -11,0 -22,0 -33,0 -3,-1 -9,0 -13,0 -9,1 -13,2 -22,3 -10,0 -65,0 -67,1l-33 2c-8,-1 -16,-2 -25,-2 -12,0 -40,0 -51,-2 -2,-1 -4,-2 -6,-2 -5,-2 -11,-8 -14,-12 -2,-4 -1,-2 -3,-5 -2,-7 -2,-8 -1,-13 0,-3 -1,-4 0,-7 3,-14 0,-3 2,-20 1,-15 0,-22 0,-36 0,-5 -1,-5 -2,-8 -1,-3 0,-6 0,-9 -10,8 -17,18 -23,23l1 45c0,10 -2,13 -2,17 1,9 -2,30 15,46 2,1 6,2 9,3 5,2 51,8 56,8 28,0 53,3 81,2z"/>
 </g>
</svg>
