<?xml version="1.0" encoding="UTF-8"?>
<!DOCTYPE svg PUBLIC "-//W3C//DTD SVG 1.1//EN" "http://www.w3.org/Graphics/SVG/1.1/DTD/svg11.dtd">
<!-- Creator: CorelDRAW X7 -->
<svg xmlns="http://www.w3.org/2000/svg" xml:space="preserve" width="55mm" height="63mm" version="1.1" style="shape-rendering:geometricPrecision; text-rendering:geometricPrecision; image-rendering:optimizeQuality; fill-rule:evenodd; clip-rule:evenodd"
viewBox="0 0 5500 6300"
 xmlns:xlink="http://www.w3.org/1999/xlink">
 <defs>
  <style type="text/css">
   <![CDATA[
    .fil0 {fill:#EF2C2A}
    .fil1 {fill:#666666;fill-rule:nonzero}
    .fil2 {fill:#EF2C2A;fill-rule:nonzero}
   ]]>
  </style>
 </defs>
 <g id="Layer_x0020_1">
  <metadata id="CorelCorpID_0Corel-Layer"/>
  <path class="fil0" d="M2485 2831c-17,16 -23,27 -38,38 -19,20 -23,24 -40,43 -13,19 -28,36 -48,65 -24,41 -30,55 -58,84 -12,13 -24,21 -33,23 -19,2 -29,-11 -34,-17 -15,-22 -21,-42 -15,-65 4,-10 5,-13 19,-27 14,-7 30,-28 30,-28 15,-23 12,-17 30,-45 24,-45 46,-86 65,-163 4,-19 4,-33 0,-37 -13,-5 -15,-4 -29,3 -4,4 -12,11 -16,16 -9,11 -12,13 -22,22 -3,3 -28,37 -34,41l-79 89c-25,27 -27,31 -37,42 0,7 5,17 -3,66 -2,12 2,12 3,25 0,37 -5,75 -4,112 2,54 8,67 34,86 48,18 46,5 107,9 39,2 80,-3 118,2l90 -2c79,-5 129,-3 207,6 57,2 90,3 131,2 45,0 90,0 134,0 43,1 85,4 129,4 50,0 168,8 212,-20l13 -11c21,-21 22,-86 20,-116 -1,-19 1,-46 -1,-65 -5,-38 -6,-155 -6,-194 0,-38 -7,-159 -1,-192 8,-40 4,-80 8,-126 1,-9 2,-21 2,-32 0,-18 -4,-12 -3,-27 1,-21 2,-45 2,-64 0,-23 -3,-41 -3,-63 -1,-44 -2,-87 -3,-129 -1,-22 -2,-42 -3,-63l-10 -59c-4,-15 -19,-30 -35,-31 -17,-1 -48,-4 -60,-1 -20,5 -106,0 -132,-1 -14,-3 -238,6 -279,7 -26,0 -11,3 -49,3 -19,1 -93,0 -104,7l-40 0c-42,-2 -74,1 -116,-1 -37,-2 -85,-7 -118,0 -28,5 -59,5 -88,6 -12,1 -20,-2 -31,-2 -22,0 -18,3 -49,7 -25,-2 -32,17 -39,24 -2,11 -10,21 -14,32 -17,44 -10,44 -19,78 -4,18 3,26 4,43 2,63 -4,139 -3,190l1 192c0,31 2,62 2,94 0,15 -1,21 1,82 3,-4 42,-47 42,-48 4,-7 49,-55 59,-66 60,-63 76,-82 119,-136 13,-16 17,-25 25,-39 6,-20 6,-23 15,-30 9,-8 19,-9 27,0 15,18 17,27 23,39 12,32 15,50 3,65 -13,7 -24,15 -32,20 -14,14 -25,25 -37,36 18,-3 20,-2 33,0 18,6 19,13 23,18 9,16 10,19 -13,79 -7,25 -7,30 -23,86 33,-34 63,-64 103,-100 42,-38 73,-66 121,-107 21,-14 40,-37 64,-36 19,0 35,5 46,8 49,14 57,22 62,32 3,5 -1,9 -11,29 -7,11 -7,15 -10,32 -1,33 -1,43 15,110 22,89 48,128 81,160 56,54 80,61 98,74 34,21 65,34 89,46 24,9 43,19 68,28 46,16 79,29 126,39 -36,-1 -72,0 -131,-6 -61,-6 -79,-3 -161,-27 -47,-16 -62,-21 -118,-58 -29,-22 -47,-42 -63,-60 -8,-11 -12,-16 -20,-27 -12,-17 -15,-22 -27,-44 -14,-29 -24,-49 -36,-83 -9,-30 -15,-76 -20,-113 0,-4 -2,-33 -6,-38 -15,-13 -19,-9 -29,-5 -12,7 -13,7 -29,20 -16,14 -22,19 -58,54 -37,36 -36,39 -84,86zm530 -62c1,0 1,0 2,0 0,0 1,0 2,0 6,-1 27,-4 38,-6 18,-2 34,-4 54,-6 15,-1 26,-3 38,-3 21,-1 38,-2 56,-1 9,2 9,8 10,11 2,8 1,10 1,21 0,16 -1,19 -2,34 -2,18 -4,25 -8,45 -1,8 -7,16 -13,23 -1,3 -28,-6 -50,-13 -2,-1 -3,0 -3,4 0,3 3,6 4,7 5,8 6,9 10,15 6,9 8,11 10,14 6,9 8,13 14,23 4,8 4,10 11,12 6,1 7,0 11,-1 4,-2 33,-21 42,-38 7,-11 13,-24 17,-48 1,-8 2,-15 4,-28 4,-29 -2,-57 21,-77 -1,-8 -18,-18 -30,-25 -11,-6 -22,-12 -32,-14 -9,0 -13,1 -29,3 -29,3 -33,3 -62,6 -49,4 -50,4 -86,8 -13,2 -33,6 -44,8 -2,0 -4,0 -5,-2 -2,-1 -1,-10 0,-22 10,5 18,6 24,5 34,-3 57,-5 87,-10 12,-3 24,-3 25,-7 0,-2 1,-12 -8,-18 -3,-3 -9,-6 -18,-7 -5,0 -11,-1 -21,0 -13,2 -30,6 -38,7 -10,2 -11,2 -24,4 -11,1 -18,2 -27,4l1 -21c5,6 58,-11 92,-12 12,0 7,0 13,0 5,6 7,6 10,7 7,-1 8,0 17,-3 3,-1 6,-2 9,-5 8,-12 19,-35 26,-48 6,-12 0,0 9,-21 3,-6 5,-11 11,-17 4,-3 9,-5 9,-8 1,-7 -15,-17 -35,-24 -13,-6 -26,-10 -30,-9 -1,-1 -13,4 -27,7 -17,5 -38,9 -48,10 -14,3 -22,4 -36,6 5,-3 11,-6 18,-11l19 -12c18,-12 21,-14 40,-26 6,-4 29,-6 20,-18 -8,-8 -17,-13 -25,-17 -16,-5 -35,-11 -43,-8 -2,1 -6,3 -2,16 1,2 2,4 2,6 -1,6 -6,14 -12,23 -6,10 -13,19 -21,29 -7,8 -12,13 -20,20 -6,-3 -7,-4 -12,-5 -7,-2 -12,-4 -24,-4 -4,1 -9,0 -14,4 -1,1 -2,3 -1,6 1,5 5,7 7,11 3,5 5,12 5,21 0,17 0,17 0,50 -1,11 -1,26 -1,36 -1,52 -7,47 -5,70 1,13 2,16 10,22 6,13 20,12 22,11 5,-3 6,-4 22,-10 -1,1 -1,3 -1,4 0,2 1,2 1,3 0,1 1,2 1,3 1,0 1,1 1,1 2,2 3,4 4,7 2,13 2,28 3,60 -9,2 -35,7 -48,10 3,-7 5,-14 7,-20 2,-7 3,-14 1,-16 -3,-4 -10,-8 -18,-11 -13,-8 -25,-11 -31,-10 -4,1 -3,6 -3,8 0,0 0,1 1,2 3,6 5,12 7,21 0,22 -7,31 -12,34 -5,13 1,21 6,29 9,10 16,14 20,14 19,-10 21,-11 32,-16 36,-13 37,-13 56,-17 12,-3 45,-9 60,-12 1,6 0,9 6,15 7,11 13,14 24,5 8,-5 9,-10 13,-32 2,-10 2,-12 4,-24 1,-5 3,-9 6,-13 1,-3 2,-5 2,-7 0,-5 -5,-9 -13,-11 -18,-8 -33,-12 -43,-10 -2,1 -3,3 -3,5 0,1 0,3 1,5 2,2 3,3 3,4 3,4 4,8 4,16 0,9 0,14 0,19 -8,0 -32,4 -47,6 2,-16 7,-45 9,-51 1,-3 1,-6 0,-7 -6,-7 -28,-16 -40,-18zm-15 -183l-2 22c26,-5 28,-6 58,-14 8,-2 13,-1 21,1 9,2 14,7 16,13 0,3 1,8 -2,9 -13,4 -47,9 -72,12 -9,2 -13,2 -21,-1 0,10 -1,14 -1,24 17,-2 26,-4 66,-11 8,-2 13,-3 23,-6 3,-1 13,-2 21,5 3,-11 5,-20 8,-31 1,-8 3,-17 4,-25 1,-7 1,-11 -2,-13 -5,-3 -13,-2 -21,-1 -21,2 -45,6 -96,16zm85 -356c7,9 10,24 12,33 6,20 8,40 9,57 2,15 3,30 5,46 3,17 6,32 8,41 1,7 9,15 19,18 14,2 15,-5 17,-9 3,-9 2,-13 2,-19 21,-2 32,-4 61,-6 22,-1 24,-2 46,-2 2,0 4,0 6,-2 0,-6 -13,-22 -16,-24 8,-37 11,-55 26,-84 0,0 3,-7 9,-16 5,-6 10,-17 9,-23 -1,-8 -9,-12 -16,-17 -10,-6 0,0 -20,-11 -17,-8 -20,-8 -28,-9 -20,0 -16,14 -65,21 -9,1 -20,4 -31,5 -14,-10 -27,-9 -33,-11 -10,-1 -13,-1 -17,0 -5,-10 -21,-18 -31,-23 -8,-5 -19,-12 -23,-11 -7,0 -14,5 -22,7 -9,3 -15,6 -22,8 6,-20 7,-25 13,-46 4,-21 10,-31 13,-41 11,-9 7,-19 -18,-30 -16,-7 -23,-9 -35,-8 -3,0 -6,4 -3,13 6,5 1,48 -1,58 -9,46 -9,50 -12,62 -31,5 -33,5 -71,10l-13 1c-2,-1 -3,5 10,18 5,3 7,7 20,7 10,1 29,-7 48,-12 -4,15 -6,21 -12,42 -4,11 -5,13 -9,24 -5,16 -11,31 -15,41 -20,45 -27,56 -37,70 -9,13 -19,25 -27,36 -1,2 -4,6 -6,9 -2,3 -5,4 -2,6 1,1 5,-2 11,-6 15,-8 28,-19 38,-28 8,-8 12,-11 17,-18 15,-21 16,-23 29,-43 20,-34 27,-58 39,-89 5,-18 6,-19 13,-39 1,-6 3,-8 4,-14 7,0 8,0 14,-1 6,0 13,0 18,0 6,0 11,3 13,9 1,14 1,33 -4,59 -4,21 -8,38 -13,60 -10,34 -18,46 -25,51 -5,5 -15,2 -23,-1 -9,-3 -16,-6 -17,-5 -1,0 -3,4 2,6 3,4 6,7 8,12 12,18 12,20 17,29 5,9 5,17 13,18 12,-3 35,-16 50,-46 1,-1 12,-30 16,-49 3,-14 6,-30 11,-66 2,-15 4,-31 6,-45 4,-11 12,-20 15,-23zm61 30c1,13 1,19 4,49 1,18 0,42 5,59 3,-1 4,-1 17,-3 8,-1 14,-2 24,-3 8,-1 12,-3 15,-3 1,-4 2,-7 3,-14 1,-10 2,-11 2,-16 2,-13 4,-25 5,-31 2,-16 3,-29 4,-38 0,-4 0,-7 -1,-8 -2,-2 -7,-3 -16,-2 -18,3 -42,11 -62,10zm-641 1093c18,0 48,-6 59,-6l90 -2c28,-4 57,2 84,2 28,-3 114,3 151,-1 28,-3 45,-2 74,-2 20,0 123,-6 142,-10 18,-3 118,1 148,1l70 -6c48,-9 28,-10 55,-23 4,-2 39,-7 53,-25 27,-33 17,-37 19,-57 1,-12 6,-20 6,-33l-2 -260c0,-16 1,-60 -2,-74 -16,-95 -4,-199 -2,-296 1,-26 1,-51 1,-78l-3 -72c0,-23 6,-55 3,-75 -8,-52 1,-49 2,-68 0,-18 -6,-55 -4,-72 6,-43 -2,-69 -7,-108 -1,-14 -4,-17 -4,-33 -1,-53 -5,-36 -14,-73 -1,-6 1,-2 -3,-6 -10,-24 -22,-28 -36,-37 -12,-8 -28,-15 -35,-23 -9,-11 -11,-10 -28,-13 -11,-1 -22,-4 -33,-4 -39,1 -38,1 -73,6 -8,4 -128,10 -145,9 -18,-1 -22,2 -36,3 -11,2 -25,1 -36,2 -34,2 -49,8 -64,6 -27,-3 -52,1 -78,-1 -40,-3 -59,5 -100,6 -22,1 -24,7 -66,3 -10,-2 -23,0 -34,-2 -15,-1 -30,1 -46,0l-102 -1c-21,2 -12,-1 -31,-1 -9,0 -11,-2 -20,-2 -44,-3 -116,-8 -167,-5 -14,2 -18,3 -30,6 -40,11 -22,9 -68,17 -13,2 -25,5 -38,6 -20,7 -37,16 -56,25 -16,7 -19,15 -30,33 -19,34 -3,11 -11,48 -3,19 -8,41 -17,95 -1,27 -2,49 -3,81 -1,28 2,21 0,59 -3,14 -1,27 0,42 1,28 1,57 1,86 1,32 6,37 6,78 1,46 -3,119 -3,168 0,28 1,60 0,87 -2,52 -3,72 1,122 1,10 -4,30 -4,43 15,-1 20,-15 40,-30 53,-43 27,-37 37,-101 3,-14 -1,-179 -1,-205 -1,-23 0,-46 0,-68 0,-24 -6,-42 -5,-66 0,-22 -4,-40 -3,-65 1,-12 3,-23 2,-35 -4,-27 -2,-116 -3,-159 -5,-52 -8,-139 48,-172 21,-15 61,-12 88,-16l66 0c41,-1 104,5 150,4 17,-2 21,2 36,2 14,0 26,-3 40,-2 62,4 123,-2 185,-5 19,0 38,1 57,1 53,-1 230,-5 267,0 21,0 106,-3 122,-1 22,4 40,-3 60,-1 19,2 40,2 61,3 55,2 55,23 64,33 6,6 11,7 10,19 -3,31 0,11 2,27 1,8 -1,8 -1,14 -1,7 0,5 1,12 5,24 2,38 0,60l5 246c0,20 1,47 -1,66 -1,18 3,40 3,60 1,41 2,84 2,125 0,54 -8,239 4,279 10,55 11,100 6,141 -3,12 -5,40 -7,56l-17 49c-14,34 -24,52 -78,57 -101,19 -97,12 -178,11 -56,-1 -114,1 -171,-1 -14,1 -32,0 -47,-1 -31,0 -63,1 -94,0 -11,-2 -28,-1 -39,-1 -27,5 -38,9 -63,11 -30,0 -189,0 -194,3l-95 4c-24,-2 -47,-4 -72,-4 -37,0 -118,-1 -149,-8 -5,-1 -13,-3 -19,-4 -12,-7 -32,-25 -40,-35 -4,-12 -3,-7 -8,-16 -7,-18 -6,-21 -3,-36 1,-9 -2,-12 0,-20 10,-40 1,-10 5,-58 3,-43 2,-63 1,-106 -1,-14 -3,-13 -5,-22 -3,-9 0,-16 -2,-26 -27,24 -47,51 -66,67l2 131c1,28 -4,37 -3,47 1,27 -6,87 41,133 6,5 19,8 26,11 16,6 149,23 163,22 83,0 153,8 236,5z"/>
  <path id="_13" class="fil1" d="M3308 5985l-27 0c-7,0 -10,-2 -10,-6 0,-5 3,-8 11,-8l28 0 1 -5c6,-38 18,-68 35,-91 7,-9 14,-16 20,-19 6,-4 14,-6 23,-6 6,0 9,1 11,2 2,1 3,3 3,7 0,17 -1,25 -5,25 -1,0 -2,0 -3,-2l-5 -5c-5,-6 -11,-9 -19,-9 -8,0 -14,8 -20,23 -6,15 -11,39 -17,72l-1 8 31 0c7,0 10,2 10,6 0,6 -4,8 -11,8l-32 0 -19 154c-3,23 -9,40 -19,51 -12,12 -24,19 -35,19 -7,0 -11,-3 -11,-9 0,-5 1,-11 4,-18 2,-6 5,-9 6,-9 2,0 3,2 4,5 1,9 5,14 11,14 6,0 11,-9 13,-28l2 -14 12 -95c3,-24 6,-47 9,-70z"/>
  <path id="_14" class="fil1" d="M3456 5968c18,0 32,6 43,18 11,13 17,29 17,50 0,29 -8,54 -25,74 -16,21 -36,31 -59,31 -17,0 -32,-7 -43,-20 -10,-13 -16,-30 -16,-50 0,-16 3,-31 10,-47 6,-16 14,-28 24,-37 14,-13 30,-19 49,-19zm0 10c-16,0 -29,9 -40,27 -10,18 -15,40 -15,66 0,39 11,58 35,58 14,0 26,-10 37,-28 10,-19 15,-42 15,-69 0,-36 -11,-54 -32,-54z"/>
  <path id="_15" class="fil1" d="M3589 5996l-11 83c-1,4 -1,8 -1,13 0,6 2,12 5,16 3,5 8,7 13,7 8,0 18,-5 27,-15 3,-3 5,-5 7,-5 2,0 3,2 3,4 0,7 -6,16 -19,26 -13,9 -24,14 -34,14 -8,0 -14,-4 -19,-11 -5,-7 -7,-17 -7,-28 0,-6 0,-13 1,-21l10 -79c0,-3 0,-5 1,-7 0,-1 0,-2 0,-3 0,-3 -2,-5 -7,-5l-12 0c-3,0 -4,-1 -4,-3 0,-3 3,-6 8,-9 15,-8 27,-19 36,-33 3,-4 5,-6 7,-6 3,0 5,2 5,4 0,1 -1,3 -1,6 -1,1 -1,4 -2,8l-2 7 -1 5c0,1 0,2 0,3 0,3 2,5 8,5l2 0 28 -1c5,0 7,2 7,5 0,6 -3,9 -10,9l-25 -1 -3 0c-4,0 -6,1 -8,2 -1,2 -2,5 -2,10z"/>
  <path id="_16" class="fil1" d="M3737 5968c19,0 33,6 44,18 11,13 16,29 16,50 0,29 -8,54 -24,74 -16,21 -36,31 -59,31 -18,0 -32,-7 -43,-20 -11,-13 -16,-30 -16,-50 0,-16 3,-31 9,-47 7,-16 15,-28 25,-37 14,-13 30,-19 48,-19zm1 10c-16,0 -29,9 -40,27 -10,18 -16,40 -16,66 0,39 12,58 36,58 14,0 26,-10 36,-28 11,-19 16,-42 16,-69 0,-36 -11,-54 -32,-54z"/>
  <path id="_17" class="fil1" d="M3928 5983c7,14 11,27 11,38 0,19 -6,34 -17,47 -11,13 -24,20 -39,20 -6,0 -12,-1 -19,-4 -2,0 -3,0 -4,0 -6,0 -9,4 -9,12 0,10 9,18 26,23l33 10c26,9 39,22 39,41 0,12 -6,22 -17,29 -12,7 -27,11 -46,11 -23,0 -42,-5 -56,-13 -14,-9 -21,-21 -21,-35 0,-11 3,-19 9,-26 7,-7 16,-11 27,-12 -4,-6 -6,-13 -6,-21 0,-8 3,-15 10,-21 1,-1 2,-2 2,-3l-1 -2c-11,-12 -16,-27 -16,-45 0,-17 6,-32 17,-45 11,-13 24,-19 38,-19 5,0 12,1 21,4 9,2 15,3 19,3 7,0 12,-1 17,-3l10 -4c2,-1 4,-1 5,-1 2,0 4,1 6,3 1,1 2,3 2,6 1,3 -1,6 -4,9 -3,2 -7,3 -11,3 -7,0 -15,-2 -26,-5zm-39 -7c-9,0 -17,6 -23,17 -6,11 -9,26 -9,43 0,13 2,24 7,31 5,8 11,12 19,12 10,0 18,-6 25,-17 6,-11 9,-25 9,-42 0,-13 -3,-23 -8,-32 -5,-8 -12,-12 -20,-12zm-39 153c-8,2 -13,5 -17,10 -5,5 -7,11 -7,18 0,13 6,23 16,31 10,8 23,12 39,12 14,0 25,-2 33,-6 9,-4 13,-10 13,-17 0,-11 -10,-19 -29,-26l-27 -10c-8,-3 -15,-7 -21,-12z"/>
  <path id="_18" class="fil1" d="M4024 6012c15,-28 31,-42 48,-42 9,0 14,3 14,10 0,1 0,3 -1,6 -1,3 -2,5 -2,6l-2 10c-1,4 -3,7 -6,7 -2,0 -4,-2 -5,-5 -3,-8 -8,-12 -14,-12 -7,0 -12,7 -17,21 -5,14 -9,37 -12,67l-6 49 0 2c-1,5 -5,8 -13,8 -8,0 -11,-2 -11,-7 0,-1 0,-2 0,-3l10 -81c0,-5 1,-10 1,-17 0,-20 -5,-30 -15,-30 -4,0 -8,2 -11,7 -3,4 -6,10 -7,16 0,6 -2,8 -5,8 -3,0 -4,-3 -4,-10 0,-14 3,-25 10,-34 4,-4 8,-8 12,-12 5,-3 9,-5 12,-5 9,0 17,14 24,41z"/>
  <path id="_19" class="fil1" d="M4191 6094c-24,31 -48,47 -73,47 -10,0 -19,-4 -25,-12 -6,-7 -10,-17 -10,-30 0,-16 4,-33 12,-52 8,-18 18,-34 30,-47 18,-20 37,-30 57,-30 7,0 15,2 23,4 3,1 6,2 8,2 4,0 9,-5 15,-15 3,-4 5,-7 7,-6 2,0 2,1 2,3 0,2 0,3 0,4 0,1 -1,5 -3,12l-5 22c-3,13 -5,30 -8,50 -3,20 -4,34 -4,42 0,17 2,25 8,25 3,0 6,-2 10,-7 5,-4 8,-9 10,-14 2,-5 4,-7 7,-7 2,0 3,1 3,4 0,9 -5,20 -16,32 -11,12 -21,18 -28,18 -6,0 -10,-3 -12,-9 -3,-6 -5,-18 -8,-36zm-8 -115c-15,0 -29,8 -42,25 -9,11 -16,24 -22,41 -6,17 -9,31 -9,44 0,21 9,31 27,31 12,0 24,-6 36,-19 12,-12 19,-25 20,-39 1,-8 2,-14 4,-20l3 -18c3,-10 4,-17 5,-21 1,-4 2,-7 2,-10 0,-4 -3,-7 -8,-10 -5,-3 -10,-4 -16,-4z"/>
  <path id="_20" class="fil1" d="M4317 5985l-28 0c-6,0 -10,-2 -10,-6 0,-5 4,-8 12,-8l28 0 0 -5c7,-38 19,-68 36,-91 7,-9 14,-16 20,-19 6,-4 14,-6 23,-6 5,0 9,1 11,2 2,1 3,3 3,7 0,17 -2,25 -5,25 -1,0 -2,0 -3,-2l-5 -5c-5,-6 -12,-9 -19,-9 -8,0 -15,8 -20,23 -6,15 -12,39 -17,72l-1 8 31 0c7,0 10,2 10,6 0,6 -4,8 -12,8l-31 0 -19 154c-3,23 -10,40 -20,51 -11,12 -23,19 -35,19 -7,0 -10,-3 -10,-9 0,-5 1,-11 4,-18 2,-6 4,-9 6,-9 2,0 3,2 3,5 2,9 6,14 11,14 7,0 12,-9 14,-28l2 -14 11 -95c3,-24 6,-47 10,-70z"/>
  <path id="_21" class="fil1" d="M4422 6053l9 -51c0,-4 1,-7 1,-10 0,-6 -4,-8 -12,-8l-12 0c-6,0 -9,-2 -9,-5 1,-3 4,-5 9,-5 13,0 25,-1 37,-3 4,-1 8,-1 10,-1 3,0 5,1 5,5l-1 2 -11 57c-5,28 -8,50 -8,64 0,9 2,13 6,13 6,1 13,-5 19,-17 1,-3 3,-5 5,-5 2,0 3,2 3,5 -1,8 -6,18 -16,29 -10,11 -19,16 -27,16 -4,0 -8,-3 -10,-9 -3,-6 -4,-14 -4,-24 0,-11 2,-28 6,-53zm35 -168c2,0 3,2 4,4 2,4 3,7 4,7l5 7c1,2 1,3 1,4 0,2 -1,3 -3,5 -3,3 -6,7 -11,13 -1,2 -3,3 -4,3 -2,0 -3,-1 -5,-4 -3,-6 -5,-11 -7,-14 -2,-1 -2,-3 -2,-4 0,-1 1,-3 2,-5l6 -6c0,0 2,-2 5,-6 2,-3 4,-4 5,-4z"/>
  <path id="_22" class="fil1" d="M4607 6094c-24,31 -48,47 -74,47 -10,0 -18,-4 -24,-12 -7,-7 -10,-17 -10,-30 0,-16 4,-33 12,-52 7,-18 17,-34 30,-47 18,-20 37,-30 57,-30 7,0 15,2 23,4 3,1 6,2 8,2 4,0 9,-5 14,-15 3,-4 6,-7 8,-6 1,0 2,1 2,3 0,2 0,3 -1,4 0,1 -1,5 -2,12l-5 22c-3,13 -6,30 -8,50 -3,20 -5,34 -5,42 0,17 3,25 8,25 3,0 7,-2 11,-7 4,-4 8,-9 10,-14 2,-5 4,-7 6,-7 3,0 4,1 4,4 0,9 -6,20 -17,32 -11,12 -20,18 -28,18 -5,0 -9,-3 -12,-9 -2,-6 -5,-18 -7,-36zm-9 -115c-14,0 -28,8 -41,25 -9,11 -16,24 -22,41 -6,17 -9,31 -9,44 0,21 9,31 27,31 12,0 23,-6 35,-19 12,-12 19,-25 21,-39 1,-8 2,-14 3,-20l4 -18c2,-10 4,-17 5,-21 1,-4 1,-7 1,-10 0,-4 -2,-7 -7,-10 -5,-3 -11,-4 -17,-4z"/>
  <path class="fil0" d="M1707 4390l1 0c0,36 29,65 65,65l0 0c-36,0 -65,30 -65,65l-1 0c0,-35 -29,-65 -65,-65l0 0 0 0 0 0c36,0 65,-29 65,-65z"/>
  <path class="fil0" d="M1707 4260l1 0c0,36 29,65 65,65l0 0c-36,0 -65,29 -65,65l-1 0c0,-36 -29,-65 -65,-65l0 0 0 0 0 0c36,0 65,-29 65,-65z"/>
  <path class="fil0" d="M1707 3869l1 0c0,36 29,65 65,65l0 0c-36,0 -65,30 -65,65l-1 0c0,-35 -29,-65 -65,-65l0 0 0 0 0 0c36,0 65,-29 65,-65z"/>
  <path class="fil0" d="M1707 3739l1 0c0,36 29,65 65,65l0 0c-36,0 -65,29 -65,65l-1 0c0,-36 -29,-65 -65,-65l0 0 0 0 0 0c36,0 65,-29 65,-65z"/>
  <path class="fil0" d="M1707 3478l1 0c0,36 29,66 65,66l0 0c-36,0 -65,29 -65,65l-1 0c0,-36 -29,-65 -65,-65l0 0 0 0 0 0c36,0 65,-30 65,-66z"/>
  <path class="fil0" d="M1707 3088l1 0c0,36 29,65 65,65l0 0c-36,0 -65,29 -65,65l-1 0c0,-36 -29,-65 -65,-65l0 0 0 0 0 0c36,0 65,-29 65,-65z"/>
  <path class="fil0" d="M1707 2957l1 0c0,36 29,66 65,66l0 0c-36,0 -65,29 -65,65l-1 0c0,-36 -29,-65 -65,-65l0 0 0 0 0 0c36,0 65,-30 65,-66z"/>
  <path class="fil0" d="M1707 2567l1 0c0,36 29,65 65,65l0 0c-36,0 -65,29 -65,65l-1 0c0,-36 -29,-65 -65,-65l0 0 0 0 0 0c36,0 65,-29 65,-65z"/>
  <path class="fil0" d="M1707 2436l1 0c0,36 29,66 65,66l0 0c-36,0 -65,29 -65,65l-1 0c0,-36 -29,-65 -65,-65l0 0 0 0 0 0c36,0 65,-30 65,-66z"/>
  <path class="fil0" d="M1707 2176l1 0c0,36 29,65 65,65l0 0c-36,0 -65,29 -65,65l-1 0c0,-36 -29,-65 -65,-65l0 0 0 0 0 0c36,0 65,-29 65,-65z"/>
  <path class="fil0" d="M1707 1785l1 0c0,36 29,65 65,65l0 0c-36,0 -65,30 -65,65l-1 0c0,-35 -29,-65 -65,-65l0 0 0 0 0 0c36,0 65,-29 65,-65z"/>
  <path class="fil0" d="M1707 1655l1 0c0,36 29,65 65,65l0 0c-36,0 -65,29 -65,65l-1 0c0,-36 -29,-65 -65,-65l0 0 0 0 0 0c36,0 65,-29 65,-65z"/>
  <path class="fil0" d="M1707 1525l1 0c0,36 29,65 65,65l0 0c-36,0 -65,29 -65,65l-1 0c0,-36 -29,-65 -65,-65l0 0 0 0 0 0c36,0 65,-29 65,-65z"/>
  <path class="fil0" d="M1707 1394l1 0c0,36 29,66 65,66l0 0c-36,0 -65,29 -65,65l-1 0c0,-36 -29,-65 -65,-65l0 0 0 0 0 0c36,0 65,-30 65,-66l0 0z"/>
  <path class="fil0" d="M1707 1264l1 0c0,36 29,65 65,65l0 0c-36,0 -65,30 -65,65l-1 0c0,-35 -29,-65 -65,-65l0 0 0 0 0 0c36,0 65,-29 65,-65l0 0z"/>
  <path class="fil0" d="M1707 1004l1 0c0,36 29,65 65,65l0 0c-36,0 -65,29 -65,65l-1 0c0,-36 -29,-65 -65,-65l0 0 0 0 0 0c36,0 65,-29 65,-65l0 0z"/>
  <path class="fil0" d="M1838 4651l0 0c0,36 29,65 65,65l0 0c-36,0 -65,29 -65,65l0 0c0,-36 -29,-65 -65,-65l0 0 0 0 0 0c36,0 65,-29 65,-65l0 0z"/>
  <path class="fil0" d="M1838 4520l0 0c0,36 29,66 65,66l0 0c-36,0 -65,29 -65,65l0 0c0,-36 -29,-65 -65,-65l0 0 0 0 0 0c36,0 65,-30 65,-66l0 0z"/>
  <path class="fil0" d="M1838 4390l0 0c0,36 29,65 65,65l0 0c-36,0 -65,30 -65,65l0 0c0,-35 -29,-65 -65,-65l0 0 0 0 0 0c36,0 65,-29 65,-65z"/>
  <path class="fil0" d="M1838 3739l0 0c0,36 29,65 65,65l0 0c-36,0 -65,29 -65,65l0 0c0,-36 -29,-65 -65,-65l0 0 0 0 0 0c36,0 65,-29 65,-65z"/>
  <path class="fil0" d="M1838 3609l0 0c0,36 29,65 65,65l0 0c-36,0 -65,29 -65,65l0 0c0,-36 -29,-65 -65,-65l0 0 0 0 0 0c36,0 65,-29 65,-65z"/>
  <path class="fil0" d="M1838 3348l0 0c0,36 29,65 65,65l0 0c-36,0 -65,30 -65,65l0 0c0,-35 -29,-65 -65,-65l0 0 0 0 0 0c36,0 65,-29 65,-65z"/>
  <path class="fil0" d="M1838 2697l0 0c0,36 29,65 65,65l0 0c-36,0 -65,29 -65,65l0 0c0,-36 -29,-65 -65,-65l0 0 0 0 0 0c36,0 65,-29 65,-65z"/>
  <path class="fil0" d="M1838 2176l0 0c0,36 29,65 65,65l0 0c-36,0 -65,29 -65,65l0 0c0,-36 -29,-65 -65,-65l0 0 0 0 0 0c36,0 65,-29 65,-65z"/>
  <path class="fil0" d="M1838 1394l0 0c0,36 29,66 65,66l0 0c-36,0 -65,29 -65,65l0 0c0,-36 -29,-65 -65,-65l0 0 0 0 0 0c36,0 65,-30 65,-66l0 0z"/>
  <path class="fil0" d="M1838 1004l0 0c0,36 29,65 65,65l0 0c-36,0 -65,29 -65,65l0 0c0,-36 -29,-65 -65,-65l0 0 0 0 0 0c36,0 65,-29 65,-65l0 0z"/>
  <path class="fil0" d="M1838 873l0 0c0,36 29,66 65,66l0 0c-36,0 -65,29 -65,65l0 0c0,-36 -29,-65 -65,-65l0 0 0 0 0 0c36,0 65,-30 65,-66l0 0z"/>
  <path class="fil0" d="M1838 743l0 0c0,36 29,65 65,65l0 0c-36,0 -65,30 -65,65l0 0c0,-35 -29,-65 -65,-65l0 0 0 0 0 0c36,0 65,-29 65,-65l0 0z"/>
  <path class="fil0" d="M1838 613l0 0c0,36 29,65 65,65l0 0c-36,0 -65,29 -65,65l0 0c0,-36 -29,-65 -65,-65l0 0 0 0 0 0c36,0 65,-29 65,-65l0 0z"/>
  <path class="fil0" d="M1838 483l0 0c0,36 29,65 65,65l0 0c-36,0 -65,29 -65,65l0 0c0,-36 -29,-65 -65,-65l0 0 0 0 0 0c36,0 65,-29 65,-65z"/>
  <path class="fil0" d="M1968 4520l0 0c0,36 29,66 65,66l0 0c-36,0 -65,29 -65,65l0 0c0,-36 -29,-65 -65,-65l0 0 0 0 0 0c36,0 65,-30 65,-66l0 0z"/>
  <path class="fil0" d="M1968 4260l0 0c0,36 29,65 65,65l0 0c-36,0 -65,29 -65,65l0 0c0,-36 -29,-65 -65,-65l0 0 0 0 0 0c36,0 65,-29 65,-65z"/>
  <path class="fil0" d="M1968 4130l0 0c0,36 29,65 65,65l0 0c-36,0 -65,29 -65,65l0 0c0,-36 -29,-65 -65,-65l0 0 0 0 0 0c36,0 65,-29 65,-65z"/>
  <path class="fil0" d="M1968 3869l0 0c0,36 29,65 65,65l0 0c-36,0 -65,30 -65,65l0 0c0,-35 -29,-65 -65,-65l0 0 0 0 0 0c36,0 65,-29 65,-65z"/>
  <path class="fil0" d="M1968 3609l0 0c0,36 29,65 65,65l0 0c-36,0 -65,29 -65,65l0 0c0,-36 -29,-65 -65,-65l0 0 0 0 0 0c36,0 65,-29 65,-65z"/>
  <path class="fil0" d="M1968 1525l0 0c0,36 29,65 65,65l0 0c-36,0 -65,29 -65,65l0 0c0,-36 -29,-65 -65,-65l0 0 0 0 0 0c36,0 65,-29 65,-65z"/>
  <path class="fil0" d="M1968 1394l0 0c0,36 29,66 65,66l0 0c-36,0 -65,29 -65,65l0 0c0,-36 -29,-65 -65,-65l0 0 0 0 0 0c36,0 65,-30 65,-66l0 0z"/>
  <path class="fil0" d="M1968 1264l0 0c0,36 29,65 65,65l0 0c-36,0 -65,30 -65,65l0 0c0,-35 -29,-65 -65,-65l0 0 0 0 0 0c36,0 65,-29 65,-65l0 0z"/>
  <path class="fil0" d="M1968 613l0 0c0,36 29,65 65,65l0 0c-36,0 -65,29 -65,65l0 0c0,-36 -29,-65 -65,-65l0 0 0 0 0 0c36,0 65,-29 65,-65l0 0z"/>
  <path class="fil0" d="M2098 4260l0 0c0,36 29,65 65,65l0 0c-36,0 -65,29 -65,65l0 0c0,-36 -29,-65 -65,-65l0 0 0 0 0 0c36,0 65,-29 65,-65z"/>
  <path class="fil0" d="M2098 3739l0 0c0,36 29,65 65,65l0 0c-36,0 -65,29 -65,65l0 0c0,-36 -29,-65 -65,-65l0 0 0 0 0 0c36,0 65,-29 65,-65z"/>
  <path class="fil0" d="M2098 3609l0 0c0,36 29,65 65,65l0 0c-36,0 -65,29 -65,65l0 0c0,-36 -29,-65 -65,-65l0 0 0 0 0 0c36,0 65,-29 65,-65z"/>
  <path class="fil0" d="M2098 1394l0 0c0,36 29,66 65,66l0 0c-36,0 -65,29 -65,65l0 0c0,-36 -29,-65 -65,-65l0 0 0 0 0 0c36,0 65,-30 65,-66l0 0z"/>
  <path class="fil0" d="M2098 1134l0 0c0,36 29,65 65,65l0 0c-36,0 -65,29 -65,65l0 0c0,-36 -29,-65 -65,-65l0 0 0 0 0 0c36,0 65,-29 65,-65l0 0z"/>
  <path class="fil0" d="M2098 743l0 0c0,36 29,65 65,65l0 0c-36,0 -65,30 -65,65l0 0c0,-35 -29,-65 -65,-65l0 0 0 0 0 0c36,0 65,-29 65,-65l0 0z"/>
  <path class="fil0" d="M2098 483l0 0c0,36 29,65 65,65l0 0c-36,0 -65,29 -65,65l0 0c0,-36 -29,-65 -65,-65l0 0 0 0 0 0c36,0 65,-29 65,-65z"/>
  <path class="fil0" d="M2228 4651l0 0c0,36 30,65 66,65l0 0c-36,0 -66,29 -66,65l0 0c0,-36 -29,-65 -65,-65l0 0 0 0 0 0c36,0 65,-29 65,-65l0 0z"/>
  <path class="fil0" d="M2228 4520l0 0c0,36 30,66 66,66l0 0c-36,0 -66,29 -66,65l0 0c0,-36 -29,-65 -65,-65l0 0 0 0 0 0c36,0 65,-30 65,-66l0 0z"/>
  <path class="fil0" d="M2228 4260l0 0c0,36 30,65 66,65l0 0c-36,0 -66,29 -66,65l0 0c0,-36 -29,-65 -65,-65l0 0 0 0 0 0c36,0 65,-29 65,-65z"/>
  <path class="fil0" d="M2228 4130l0 0c0,36 30,65 66,65l0 0c-36,0 -66,29 -66,65l0 0c0,-36 -29,-65 -65,-65l0 0 0 0 0 0c36,0 65,-29 65,-65z"/>
  <path class="fil0" d="M2228 3999l0 0c0,36 30,66 66,66l0 0c-36,0 -66,29 -66,65l0 0c0,-36 -29,-65 -65,-65l0 0 0 0 0 0c36,0 65,-30 65,-66z"/>
  <path class="fil0" d="M2228 3609l0 0c0,36 30,65 66,65l0 0c-36,0 -66,29 -66,65l0 0c0,-36 -29,-65 -65,-65l0 0 0 0 0 0c36,0 65,-29 65,-65z"/>
  <path class="fil0" d="M2228 3478l0 0c0,36 30,66 66,66l0 0c-36,0 -66,29 -66,65l0 0c0,-36 -29,-65 -65,-65l0 0 0 0 0 0c36,0 65,-30 65,-66z"/>
  <path class="fil0" d="M2228 1655l0 0c0,36 30,65 66,65l0 0c-36,0 -66,29 -66,65l0 0c0,-36 -29,-65 -65,-65l0 0 0 0 0 0c36,0 65,-29 65,-65z"/>
  <path class="fil0" d="M2228 1264l0 0c0,36 30,65 66,65l0 0c-36,0 -66,30 -66,65l0 0c0,-35 -29,-65 -65,-65l0 0 0 0 0 0c36,0 65,-29 65,-65l0 0z"/>
  <path class="fil0" d="M2228 1134l0 0c0,36 30,65 66,65l0 0c-36,0 -66,29 -66,65l0 0c0,-36 -29,-65 -65,-65l0 0 0 0 0 0c36,0 65,-29 65,-65l0 0z"/>
  <path class="fil0" d="M2228 873l0 0c0,36 30,66 66,66l0 0c-36,0 -66,29 -66,65l0 0c0,-36 -29,-65 -65,-65l0 0 0 0 0 0c36,0 65,-30 65,-66l0 0z"/>
  <path class="fil0" d="M2228 483l0 0c0,36 30,65 66,65l0 0c-36,0 -66,29 -66,65l0 0c0,-36 -29,-65 -65,-65l0 0 0 0 0 0c36,0 65,-29 65,-65z"/>
  <path class="fil0" d="M2359 4520l0 0c0,36 29,66 65,66l0 0c-36,0 -65,29 -65,65l0 0c0,-36 -30,-65 -65,-65l0 0 0 0 0 0c35,0 65,-30 65,-66l0 0z"/>
  <path class="fil0" d="M2359 4130l0 0c0,36 29,65 65,65l0 0c-36,0 -65,29 -65,65l0 0c0,-36 -30,-65 -65,-65l0 0 0 0 0 0c35,0 65,-29 65,-65z"/>
  <path class="fil0" d="M2359 3869l0 0c0,36 29,65 65,65l0 0c-36,0 -65,30 -65,65l0 0c0,-35 -30,-65 -65,-65l0 0 0 0 0 0c35,0 65,-29 65,-65z"/>
  <path class="fil0" d="M2359 3739l0 0c0,36 29,65 65,65l0 0c-36,0 -65,29 -65,65l0 0c0,-36 -30,-65 -65,-65l0 0 0 0 0 0c35,0 65,-29 65,-65z"/>
  <path class="fil0" d="M2359 1394l0 0c0,36 29,66 65,66l0 0c-36,0 -65,29 -65,65l0 0c0,-36 -30,-65 -65,-65l0 0 0 0 0 0c35,0 65,-30 65,-66l0 0z"/>
  <path class="fil0" d="M2359 1134l0 0c0,36 29,65 65,65l0 0c-36,0 -65,29 -65,65l0 0c0,-36 -30,-65 -65,-65l0 0 0 0 0 0c35,0 65,-29 65,-65l0 0z"/>
  <path class="fil0" d="M2359 1004l0 0c0,36 29,65 65,65l0 0c-36,0 -65,29 -65,65l0 0c0,-36 -30,-65 -65,-65l0 0 0 0 0 0c35,0 65,-29 65,-65l0 0z"/>
  <path class="fil0" d="M2359 743l0 0c0,36 29,65 65,65l0 0c-36,0 -65,30 -65,65l0 0c0,-35 -30,-65 -65,-65l0 0 0 0 0 0c35,0 65,-29 65,-65l0 0z"/>
  <path class="fil0" d="M2359 483l0 0c0,36 29,65 65,65l0 0c-36,0 -65,29 -65,65l0 0c0,-36 -30,-65 -65,-65l0 0 0 0 0 0c35,0 65,-29 65,-65z"/>
  <path class="fil0" d="M2489 4651l0 0c0,36 29,65 65,65l0 0c-36,0 -65,29 -65,65l0 0c0,-36 -29,-65 -65,-65l0 0 0 0 0 0c36,0 65,-29 65,-65l0 0z"/>
  <path class="fil0" d="M2489 4390l0 0c0,36 29,65 65,65l0 0c-36,0 -65,30 -65,65l0 0c0,-35 -29,-65 -65,-65l0 0 0 0 0 0c36,0 65,-29 65,-65z"/>
  <path class="fil0" d="M2489 4130l0 0c0,36 29,65 65,65l0 0c-36,0 -65,29 -65,65l0 0c0,-36 -29,-65 -65,-65l0 0 0 0 0 0c36,0 65,-29 65,-65z"/>
  <path class="fil0" d="M2489 3999l0 0c0,36 29,66 65,66l0 0c-36,0 -65,29 -65,65l0 0c0,-36 -29,-65 -65,-65l0 0 0 0 0 0c36,0 65,-30 65,-66z"/>
  <path class="fil0" d="M2489 3869l0 0c0,36 29,65 65,65l0 0c-36,0 -65,30 -65,65l0 0c0,-35 -29,-65 -65,-65l0 0 0 0 0 0c36,0 65,-29 65,-65z"/>
  <path class="fil0" d="M2489 3739l0 0c0,36 29,65 65,65l0 0c-36,0 -65,29 -65,65l0 0c0,-36 -29,-65 -65,-65l0 0 0 0 0 0c36,0 65,-29 65,-65z"/>
  <path class="fil0" d="M2489 3609l0 0c0,36 29,65 65,65l0 0c-36,0 -65,29 -65,65l0 0c0,-36 -29,-65 -65,-65l0 0 0 0 0 0c36,0 65,-29 65,-65z"/>
  <path class="fil0" d="M2489 1655l0 0c0,36 29,65 65,65l0 0c-36,0 -65,29 -65,65l0 0c0,-36 -29,-65 -65,-65l0 0 0 0 0 0c36,0 65,-29 65,-65z"/>
  <path class="fil0" d="M2489 1525l0 0c0,36 29,65 65,65l0 0c-36,0 -65,29 -65,65l0 0c0,-36 -29,-65 -65,-65l0 0 0 0 0 0c36,0 65,-29 65,-65z"/>
  <path class="fil0" d="M2489 1394l0 0c0,36 29,66 65,66l0 0c-36,0 -65,29 -65,65l0 0c0,-36 -29,-65 -65,-65l0 0 0 0 0 0c36,0 65,-30 65,-66l0 0z"/>
  <path class="fil0" d="M2489 1264l0 0c0,36 29,65 65,65l0 0c-36,0 -65,30 -65,65l0 0c0,-35 -29,-65 -65,-65l0 0 0 0 0 0c36,0 65,-29 65,-65l0 0z"/>
  <path class="fil0" d="M2489 1004l0 0c0,36 29,65 65,65l0 0c-36,0 -65,29 -65,65l0 0c0,-36 -29,-65 -65,-65l0 0 0 0 0 0c36,0 65,-29 65,-65l0 0z"/>
  <path class="fil0" d="M2619 4130l0 0c0,36 29,65 65,65l0 0c-36,0 -65,29 -65,65l0 0c0,-36 -29,-65 -65,-65l0 0 0 0 0 0c36,0 65,-29 65,-65z"/>
  <path class="fil0" d="M2619 3739l0 0c0,36 29,65 65,65l0 0c-36,0 -65,29 -65,65l0 0c0,-36 -29,-65 -65,-65l0 0 0 0 0 0c36,0 65,-29 65,-65z"/>
  <path class="fil0" d="M2749 4651l0 0c0,36 29,65 65,65l0 0c-35,0 -65,29 -65,65l0 0c0,-36 -29,-65 -65,-65l0 0 0 0 0 0c36,0 65,-29 65,-65l0 0z"/>
  <path class="fil0" d="M2749 4260l0 0c0,36 29,65 65,65l0 0c-35,0 -65,29 -65,65l0 0c0,-36 -29,-65 -65,-65l0 0 0 0 0 0c36,0 65,-29 65,-65z"/>
  <path class="fil0" d="M2749 3478l0 0c0,36 29,66 65,66l0 0c-35,0 -65,29 -65,65l0 0c0,-36 -29,-65 -65,-65l0 0 0 0 0 0c36,0 65,-30 65,-66z"/>
  <path class="fil0" d="M2749 1655l0 0c0,36 29,65 65,65l0 0c-35,0 -65,29 -65,65l0 0c0,-36 -29,-65 -65,-65l0 0 0 0 0 0c36,0 65,-29 65,-65z"/>
  <path class="fil0" d="M2749 1394l0 0c0,36 29,66 65,66l0 0c-35,0 -65,29 -65,65l0 0c0,-36 -29,-65 -65,-65l0 0 0 0 0 0c36,0 65,-30 65,-66l0 0z"/>
  <path class="fil0" d="M2749 1264l0 0c0,36 29,65 65,65l0 0c-35,0 -65,30 -65,65l0 0c0,-35 -29,-65 -65,-65l0 0 0 0 0 0c36,0 65,-29 65,-65l0 0z"/>
  <path class="fil0" d="M2749 873l0 0c0,36 29,66 65,66l0 0c-35,0 -65,29 -65,65l0 0c0,-36 -29,-65 -65,-65l0 0 0 0 0 0c36,0 65,-30 65,-66l0 0z"/>
  <path class="fil0" d="M2880 4651l0 0c0,36 29,65 65,65l0 0c-36,0 -65,29 -65,65l0 0c0,-36 -30,-65 -66,-65l0 0 0 0 0 0c36,0 66,-29 66,-65l0 0z"/>
  <path class="fil0" d="M2880 4390l0 0c0,36 29,65 65,65l0 0c-36,0 -65,30 -65,65l0 0c0,-35 -30,-65 -66,-65l0 0 0 0 0 0c36,0 66,-29 66,-65z"/>
  <path class="fil0" d="M2880 3869l0 0c0,36 29,65 65,65l0 0c-36,0 -65,30 -65,65l0 0c0,-35 -30,-65 -66,-65l0 0 0 0 0 0c36,0 66,-29 66,-65z"/>
  <path class="fil0" d="M2880 3739l0 0c0,36 29,65 65,65l0 0c-36,0 -65,29 -65,65l0 0c0,-36 -30,-65 -66,-65l0 0 0 0 0 0c36,0 66,-29 66,-65z"/>
  <path class="fil0" d="M2880 1004l0 0c0,36 29,65 65,65l0 0c-36,0 -65,29 -65,65l0 0c0,-36 -30,-65 -66,-65l0 0 0 0 0 0c36,0 66,-29 66,-65l0 0z"/>
  <path class="fil0" d="M2880 873l0 0c0,36 29,66 65,66l0 0c-36,0 -65,29 -65,65l0 0c0,-36 -30,-65 -66,-65l0 0 0 0 0 0c36,0 66,-30 66,-66l0 0z"/>
  <path class="fil0" d="M2880 743l0 0c0,36 29,65 65,65l0 0c-36,0 -65,30 -65,65l0 0c0,-35 -30,-65 -66,-65l0 0 0 0 0 0c36,0 66,-29 66,-65l0 0z"/>
  <path class="fil0" d="M2880 483l0 0c0,36 29,65 65,65l0 0c-36,0 -65,29 -65,65l0 0c0,-36 -30,-65 -66,-65l0 0 0 0 0 0c36,0 66,-29 66,-65z"/>
  <path class="fil0" d="M3010 4520l0 0c0,36 29,66 65,66l0 0c-36,0 -65,29 -65,65l0 0c0,-36 -29,-65 -65,-65l0 0 0 0 0 0c36,0 65,-30 65,-66l0 0z"/>
  <path class="fil0" d="M3010 4260l0 0c0,36 29,65 65,65l0 0c-36,0 -65,29 -65,65l0 0c0,-36 -29,-65 -65,-65l0 0 0 0 0 0c36,0 65,-29 65,-65z"/>
  <path class="fil0" d="M3010 3869l0 0c0,36 29,65 65,65l0 0c-36,0 -65,30 -65,65l0 0c0,-35 -29,-65 -65,-65l0 0 0 0 0 0c36,0 65,-29 65,-65z"/>
  <path class="fil0" d="M3010 3739l0 0c0,36 29,65 65,65l0 0c-36,0 -65,29 -65,65l0 0c0,-36 -29,-65 -65,-65l0 0 0 0 0 0c36,0 65,-29 65,-65z"/>
  <path class="fil0" d="M3010 1655l0 0c0,36 29,65 65,65l0 0c-36,0 -65,29 -65,65l0 0c0,-36 -29,-65 -65,-65l0 0 0 0 0 0c36,0 65,-29 65,-65z"/>
  <path class="fil0" d="M3010 1525l0 0c0,36 29,65 65,65l0 0c-36,0 -65,29 -65,65l0 0c0,-36 -29,-65 -65,-65l0 0 0 0 0 0c36,0 65,-29 65,-65z"/>
  <path class="fil0" d="M3010 1394l0 0c0,36 29,66 65,66l0 0c-36,0 -65,29 -65,65l0 0c0,-36 -29,-65 -65,-65l0 0 0 0 0 0c36,0 65,-30 65,-66l0 0z"/>
  <path class="fil0" d="M3010 1264l0 0c0,36 29,65 65,65l0 0c-36,0 -65,30 -65,65l0 0c0,-35 -29,-65 -65,-65l0 0 0 0 0 0c36,0 65,-29 65,-65l0 0z"/>
  <path class="fil0" d="M3010 1134l0 0c0,36 29,65 65,65l0 0c-36,0 -65,29 -65,65l0 0c0,-36 -29,-65 -65,-65l0 0 0 0 0 0c36,0 65,-29 65,-65l0 0z"/>
  <path class="fil0" d="M3010 1004l0 0c0,36 29,65 65,65l0 0c-36,0 -65,29 -65,65l0 0c0,-36 -29,-65 -65,-65l0 0 0 0 0 0c36,0 65,-29 65,-65l0 0z"/>
  <path class="fil0" d="M3010 743l0 0c0,36 29,65 65,65l0 0c-36,0 -65,30 -65,65l0 0c0,-35 -29,-65 -65,-65l0 0 0 0 0 0c36,0 65,-29 65,-65l0 0z"/>
  <path class="fil0" d="M3140 4651l0 0c0,36 29,65 65,65l0 0c-36,0 -65,29 -65,65l0 0c0,-36 -29,-65 -65,-65l0 0 0 0 0 0c36,0 65,-29 65,-65l0 0z"/>
  <path class="fil0" d="M3140 4260l0 0c0,36 29,65 65,65l0 0c-36,0 -65,29 -65,65l0 0c0,-36 -29,-65 -65,-65l0 0 0 0 0 0c36,0 65,-29 65,-65z"/>
  <path class="fil0" d="M3140 4130l0 0c0,36 29,65 65,65l0 0c-36,0 -65,29 -65,65l0 0c0,-36 -29,-65 -65,-65l0 0 0 0 0 0c36,0 65,-29 65,-65z"/>
  <path class="fil0" d="M3140 3999l0 0c0,36 29,66 65,66l0 0c-36,0 -65,29 -65,65l0 0c0,-36 -29,-65 -65,-65l0 0 0 0 0 0c36,0 65,-30 65,-66z"/>
  <path class="fil0" d="M3140 1394l0 0c0,36 29,66 65,66l0 0c-36,0 -65,29 -65,65l0 0c0,-36 -29,-65 -65,-65l0 0 0 0 0 0c36,0 65,-30 65,-66l0 0z"/>
  <path class="fil0" d="M3140 1134l0 0c0,36 29,65 65,65l0 0c-36,0 -65,29 -65,65l0 0c0,-36 -29,-65 -65,-65l0 0 0 0 0 0c36,0 65,-29 65,-65l0 0z"/>
  <path class="fil0" d="M3140 743l0 0c0,36 29,65 65,65l0 0c-36,0 -65,30 -65,65l0 0c0,-35 -29,-65 -65,-65l0 0 0 0 0 0c36,0 65,-29 65,-65l0 0z"/>
  <path class="fil0" d="M3140 613l0 0c0,36 29,65 65,65l0 0c-36,0 -65,29 -65,65l0 0c0,-36 -29,-65 -65,-65l0 0 0 0 0 0c36,0 65,-29 65,-65l0 0z"/>
  <path class="fil0" d="M3270 4520l0 0c0,36 29,66 65,66l0 0c-36,0 -65,29 -65,65l0 0c0,-36 -29,-65 -65,-65l0 0 0 0 0 0c36,0 65,-30 65,-66l0 0z"/>
  <path class="fil0" d="M3270 4390l0 0c0,36 29,65 65,65l0 0c-36,0 -65,30 -65,65l0 0c0,-35 -29,-65 -65,-65l0 0 0 0 0 0c36,0 65,-29 65,-65z"/>
  <path class="fil0" d="M3270 4260l0 0c0,36 29,65 65,65l0 0c-36,0 -65,29 -65,65l0 0c0,-36 -29,-65 -65,-65l0 0 0 0 0 0c36,0 65,-29 65,-65z"/>
  <path class="fil0" d="M3270 4130l0 0c0,36 29,65 65,65l0 0c-36,0 -65,29 -65,65l0 0c0,-36 -29,-65 -65,-65l0 0 0 0 0 0c36,0 65,-29 65,-65z"/>
  <path class="fil0" d="M3270 3869l0 0c0,36 29,65 65,65l0 0c-36,0 -65,30 -65,65l0 0c0,-35 -29,-65 -65,-65l0 0 0 0 0 0c36,0 65,-29 65,-65z"/>
  <path class="fil0" d="M3270 3739l0 0c0,36 29,65 65,65l0 0c-36,0 -65,29 -65,65l0 0c0,-36 -29,-65 -65,-65l0 0 0 0 0 0c36,0 65,-29 65,-65z"/>
  <path class="fil0" d="M3270 3609l0 0c0,36 29,65 65,65l0 0c-36,0 -65,29 -65,65l0 0c0,-36 -29,-65 -65,-65l0 0 0 0 0 0c36,0 65,-29 65,-65z"/>
  <path class="fil0" d="M3270 3478l0 0c0,36 29,66 65,66l0 0c-36,0 -65,29 -65,65l0 0c0,-36 -29,-65 -65,-65l0 0 0 0 0 0c36,0 65,-30 65,-66z"/>
  <path class="fil0" d="M3270 1264l0 0c0,36 29,65 65,65l0 0c-36,0 -65,30 -65,65l0 0c0,-35 -29,-65 -65,-65l0 0 0 0 0 0c36,0 65,-29 65,-65l0 0z"/>
  <path class="fil0" d="M3270 1134l0 0c0,36 29,65 65,65l0 0c-36,0 -65,29 -65,65l0 0c0,-36 -29,-65 -65,-65l0 0 0 0 0 0c36,0 65,-29 65,-65l0 0z"/>
  <path class="fil0" d="M3270 1004l0 0c0,36 29,65 65,65l0 0c-36,0 -65,29 -65,65l0 0c0,-36 -29,-65 -65,-65l0 0 0 0 0 0c36,0 65,-29 65,-65l0 0z"/>
  <path class="fil0" d="M3270 873l0 0c0,36 29,66 65,66l0 0c-36,0 -65,29 -65,65l0 0c0,-36 -29,-65 -65,-65l0 0 0 0 0 0c36,0 65,-30 65,-66l0 0z"/>
  <path class="fil0" d="M3270 613l0 0c0,36 29,65 65,65l0 0c-36,0 -65,29 -65,65l0 0c0,-36 -29,-65 -65,-65l0 0 0 0 0 0c36,0 65,-29 65,-65l0 0z"/>
  <path class="fil0" d="M3270 483l0 0c0,36 29,65 65,65l0 0c-36,0 -65,29 -65,65l0 0c0,-36 -29,-65 -65,-65l0 0 0 0 0 0c36,0 65,-29 65,-65z"/>
  <path class="fil0" d="M3400 4651l1 0c0,36 29,65 65,65l0 0c-36,0 -65,29 -65,65l-1 0c0,-36 -29,-65 -65,-65l0 0 0 0 0 0c36,0 65,-29 65,-65l0 0z"/>
  <path class="fil0" d="M3400 4520l1 0c0,36 29,66 65,66l0 0c-36,0 -65,29 -65,65l-1 0c0,-36 -29,-65 -65,-65l0 0 0 0 0 0c36,0 65,-30 65,-66l0 0z"/>
  <path class="fil0" d="M3400 4390l1 0c0,36 29,65 65,65l0 0c-36,0 -65,30 -65,65l-1 0c0,-35 -29,-65 -65,-65l0 0 0 0 0 0c36,0 65,-29 65,-65z"/>
  <path class="fil0" d="M3400 4260l1 0c0,36 29,65 65,65l0 0c-36,0 -65,29 -65,65l-1 0c0,-36 -29,-65 -65,-65l0 0 0 0 0 0c36,0 65,-29 65,-65z"/>
  <path class="fil0" d="M3400 3999l1 0c0,36 29,66 65,66l0 0c-36,0 -65,29 -65,65l-1 0c0,-36 -29,-65 -65,-65l0 0 0 0 0 0c36,0 65,-30 65,-66z"/>
  <path class="fil0" d="M3400 1394l1 0c0,36 29,66 65,66l0 0c-36,0 -65,29 -65,65l-1 0c0,-36 -29,-65 -65,-65l0 0 0 0 0 0c36,0 65,-30 65,-66l0 0z"/>
  <path class="fil0" d="M3400 1134l1 0c0,36 29,65 65,65l0 0c-36,0 -65,29 -65,65l-1 0c0,-36 -29,-65 -65,-65l0 0 0 0 0 0c36,0 65,-29 65,-65l0 0z"/>
  <path class="fil0" d="M3400 873l1 0c0,36 29,66 65,66l0 0c-36,0 -65,29 -65,65l-1 0c0,-36 -29,-65 -65,-65l0 0 0 0 0 0c36,0 65,-30 65,-66l0 0z"/>
  <path class="fil0" d="M3400 743l1 0c0,36 29,65 65,65l0 0c-36,0 -65,30 -65,65l-1 0c0,-35 -29,-65 -65,-65l0 0 0 0 0 0c36,0 65,-29 65,-65l0 0z"/>
  <path class="fil0" d="M3400 613l1 0c0,36 29,65 65,65l0 0c-36,0 -65,29 -65,65l-1 0c0,-36 -29,-65 -65,-65l0 0 0 0 0 0c36,0 65,-29 65,-65l0 0z"/>
  <path class="fil0" d="M3400 483l1 0c0,36 29,65 65,65l0 0c-36,0 -65,29 -65,65l-1 0c0,-36 -29,-65 -65,-65l0 0 0 0 0 0c36,0 65,-29 65,-65z"/>
  <path class="fil0" d="M3531 3999l0 0c0,36 29,66 65,66l0 0c-36,0 -65,29 -65,65l0 0c0,-36 -29,-65 -65,-65l0 0 0 0 0 0c36,0 65,-30 65,-66z"/>
  <path class="fil0" d="M3531 3869l0 0c0,36 29,65 65,65l0 0c-36,0 -65,30 -65,65l0 0c0,-35 -29,-65 -65,-65l0 0 0 0 0 0c36,0 65,-29 65,-65z"/>
  <path class="fil0" d="M3531 3739l0 0c0,36 29,65 65,65l0 0c-36,0 -65,29 -65,65l0 0c0,-36 -29,-65 -65,-65l0 0 0 0 0 0c36,0 65,-29 65,-65z"/>
  <path class="fil0" d="M3531 1655l0 0c0,36 29,65 65,65l0 0c-36,0 -65,29 -65,65l0 0c0,-36 -29,-65 -65,-65l0 0 0 0 0 0c36,0 65,-29 65,-65z"/>
  <path class="fil0" d="M3531 1525l0 0c0,36 29,65 65,65l0 0c-36,0 -65,29 -65,65l0 0c0,-36 -29,-65 -65,-65l0 0 0 0 0 0c36,0 65,-29 65,-65z"/>
  <path class="fil0" d="M3531 1264l0 0c0,36 29,65 65,65l0 0c-36,0 -65,30 -65,65l0 0c0,-35 -29,-65 -65,-65l0 0 0 0 0 0c36,0 65,-29 65,-65l0 0z"/>
  <path class="fil0" d="M3531 1004l0 0c0,36 29,65 65,65l0 0c-36,0 -65,29 -65,65l0 0c0,-36 -29,-65 -65,-65l0 0 0 0 0 0c36,0 65,-29 65,-65l0 0z"/>
  <path class="fil0" d="M3531 873l0 0c0,36 29,66 65,66l0 0c-36,0 -65,29 -65,65l0 0c0,-36 -29,-65 -65,-65l0 0 0 0 0 0c36,0 65,-30 65,-66l0 0z"/>
  <path class="fil0" d="M3531 743l0 0c0,36 29,65 65,65l0 0c-36,0 -65,30 -65,65l0 0c0,-35 -29,-65 -65,-65l0 0 0 0 0 0c36,0 65,-29 65,-65l0 0z"/>
  <path class="fil0" d="M3531 613l0 0c0,36 29,65 65,65l0 0c-36,0 -65,29 -65,65l0 0c0,-36 -29,-65 -65,-65l0 0 0 0 0 0c36,0 65,-29 65,-65l0 0z"/>
  <path class="fil0" d="M3661 4520l0 0c0,36 29,66 65,66l0 0c-36,0 -65,29 -65,65l0 0c0,-36 -29,-65 -65,-65l0 0 0 0 0 0c36,0 65,-30 65,-66l0 0z"/>
  <path class="fil0" d="M3661 4390l0 0c0,36 29,65 65,65l0 0c-36,0 -65,30 -65,65l0 0c0,-35 -29,-65 -65,-65l0 0 0 0 0 0c36,0 65,-29 65,-65z"/>
  <path class="fil0" d="M3661 3999l0 0c0,36 29,66 65,66l0 0c-36,0 -65,29 -65,65l0 0c0,-36 -29,-65 -65,-65l0 0 0 0 0 0c36,0 65,-30 65,-66z"/>
  <path class="fil0" d="M3661 3609l0 0c0,36 29,65 65,65l0 0c-36,0 -65,29 -65,65l0 0c0,-36 -29,-65 -65,-65l0 0 0 0 0 0c36,0 65,-29 65,-65z"/>
  <path class="fil0" d="M3661 3478l0 0c0,36 29,66 65,66l0 0c-36,0 -65,29 -65,65l0 0c0,-36 -29,-65 -65,-65l0 0 0 0 0 0c36,0 65,-30 65,-66z"/>
  <path class="fil0" d="M3661 2567l0 0c0,36 29,65 65,65l0 0c-36,0 -65,29 -65,65l0 0c0,-36 -29,-65 -65,-65l0 0 0 0 0 0c36,0 65,-29 65,-65z"/>
  <path class="fil0" d="M3661 2436l0 0c0,36 29,66 65,66l0 0c-36,0 -65,29 -65,65l0 0c0,-36 -29,-65 -65,-65l0 0 0 0 0 0c36,0 65,-30 65,-66z"/>
  <path class="fil0" d="M3661 2306l0 0c0,36 29,65 65,65l0 0c-36,0 -65,30 -65,65l0 0c0,-35 -29,-65 -65,-65l0 0 0 0 0 0c36,0 65,-29 65,-65z"/>
  <path class="fil0" d="M3661 2176l0 0c0,36 29,65 65,65l0 0c-36,0 -65,29 -65,65l0 0c0,-36 -29,-65 -65,-65l0 0 0 0 0 0c36,0 65,-29 65,-65z"/>
  <path class="fil0" d="M3661 1915l0 0c0,36 29,66 65,66l0 0c-36,0 -65,29 -65,65l0 0c0,-36 -29,-65 -65,-65l0 0 0 0 0 0c36,0 65,-30 65,-66z"/>
  <path class="fil0" d="M3661 1785l0 0c0,36 29,65 65,65l0 0c-36,0 -65,30 -65,65l0 0c0,-35 -29,-65 -65,-65l0 0 0 0 0 0c36,0 65,-29 65,-65z"/>
  <path class="fil0" d="M3661 1394l0 0c0,36 29,66 65,66l0 0c-36,0 -65,29 -65,65l0 0c0,-36 -29,-65 -65,-65l0 0 0 0 0 0c36,0 65,-30 65,-66l0 0z"/>
  <path class="fil0" d="M3661 1004l0 0c0,36 29,65 65,65l0 0c-36,0 -65,29 -65,65l0 0c0,-36 -29,-65 -65,-65l0 0 0 0 0 0c36,0 65,-29 65,-65l0 0z"/>
  <path class="fil0" d="M3661 743l0 0c0,36 29,65 65,65l0 0c-36,0 -65,30 -65,65l0 0c0,-35 -29,-65 -65,-65l0 0 0 0 0 0c36,0 65,-29 65,-65l0 0z"/>
  <path class="fil0" d="M3661 483l0 0c0,36 29,65 65,65l0 0c-36,0 -65,29 -65,65l0 0c0,-36 -29,-65 -65,-65l0 0 0 0 0 0c36,0 65,-29 65,-65z"/>
  <path class="fil0" d="M3791 4651l0 0c0,36 29,65 65,65l0 0c-36,0 -65,29 -65,65l0 0c0,-36 -29,-65 -65,-65l0 0 0 0 0 0c36,0 65,-29 65,-65l0 0z"/>
  <path class="fil0" d="M3791 4390l0 0c0,36 29,65 65,65l0 0c-36,0 -65,30 -65,65l0 0c0,-35 -29,-65 -65,-65l0 0 0 0 0 0c36,0 65,-29 65,-65z"/>
  <path class="fil0" d="M3791 4260l0 0c0,36 29,65 65,65l0 0c-36,0 -65,29 -65,65l0 0c0,-36 -29,-65 -65,-65l0 0 0 0 0 0c36,0 65,-29 65,-65z"/>
  <path class="fil0" d="M3791 4130l0 0c0,36 29,65 65,65l0 0c-36,0 -65,29 -65,65l0 0c0,-36 -29,-65 -65,-65l0 0 0 0 0 0c36,0 65,-29 65,-65z"/>
  <path class="fil0" d="M3791 3999l0 0c0,36 29,66 65,66l0 0c-36,0 -65,29 -65,65l0 0c0,-36 -29,-65 -65,-65l0 0 0 0 0 0c36,0 65,-30 65,-66z"/>
  <path class="fil0" d="M3791 3869l0 0c0,36 29,65 65,65l0 0c-36,0 -65,30 -65,65l0 0c0,-35 -29,-65 -65,-65l0 0 0 0 0 0c36,0 65,-29 65,-65z"/>
  <path class="fil0" d="M3791 3739l0 0c0,36 29,65 65,65l0 0c-36,0 -65,29 -65,65l0 0c0,-36 -29,-65 -65,-65l0 0 0 0 0 0c36,0 65,-29 65,-65z"/>
  <path class="fil0" d="M3791 3609l0 0c0,36 29,65 65,65l0 0c-36,0 -65,29 -65,65l0 0c0,-36 -29,-65 -65,-65l0 0 0 0 0 0c36,0 65,-29 65,-65z"/>
  <path class="fil0" d="M3791 3478l0 0c0,36 29,66 65,66l0 0c-36,0 -65,29 -65,65l0 0c0,-36 -29,-65 -65,-65l0 0 0 0 0 0c36,0 65,-30 65,-66z"/>
  <path class="fil0" d="M3791 2957l0 0c0,36 29,66 65,66l0 0c-36,0 -65,29 -65,65l0 0c0,-36 -29,-65 -65,-65l0 0 0 0 0 0c36,0 65,-30 65,-66z"/>
  <path class="fil0" d="M3791 1915l0 0c0,36 29,66 65,66l0 0c-36,0 -65,29 -65,65l0 0c0,-36 -29,-65 -65,-65l0 0 0 0 0 0c36,0 65,-30 65,-66z"/>
  <path class="fil0" d="M3791 1525l0 0c0,36 29,65 65,65l0 0c-36,0 -65,29 -65,65l0 0c0,-36 -29,-65 -65,-65l0 0 0 0 0 0c36,0 65,-29 65,-65z"/>
  <path class="fil0" d="M3791 1264l0 0c0,36 29,65 65,65l0 0c-36,0 -65,30 -65,65l0 0c0,-35 -29,-65 -65,-65l0 0 0 0 0 0c36,0 65,-29 65,-65l0 0z"/>
  <path class="fil0" d="M3791 1134l0 0c0,36 29,65 65,65l0 0c-36,0 -65,29 -65,65l0 0c0,-36 -29,-65 -65,-65l0 0 0 0 0 0c36,0 65,-29 65,-65l0 0z"/>
  <path class="fil0" d="M3791 613l0 0c0,36 29,65 65,65l0 0c-36,0 -65,29 -65,65l0 0c0,-36 -29,-65 -65,-65l0 0 0 0 0 0c36,0 65,-29 65,-65l0 0z"/>
  <path class="fil0" d="M3791 483l0 0c0,36 29,65 65,65l0 0c-36,0 -65,29 -65,65l0 0c0,-36 -29,-65 -65,-65l0 0 0 0 0 0c36,0 65,-29 65,-65z"/>
  <path class="fil0" d="M3921 4651l0 0c0,36 30,65 66,65l0 0c-36,0 -66,29 -66,65l0 0c0,-36 -29,-65 -65,-65l0 0 0 0 0 0c36,0 65,-29 65,-65l0 0z"/>
  <path class="fil0" d="M3921 4520l0 0c0,36 30,66 66,66l0 0c-36,0 -66,29 -66,65l0 0c0,-36 -29,-65 -65,-65l0 0 0 0 0 0c36,0 65,-30 65,-66l0 0z"/>
  <path class="fil0" d="M3921 4130l0 0c0,36 30,65 66,65l0 0c-36,0 -66,29 -66,65l0 0c0,-36 -29,-65 -65,-65l0 0 0 0 0 0c36,0 65,-29 65,-65z"/>
  <path class="fil0" d="M3921 3609l0 0c0,36 30,65 66,65l0 0c-36,0 -66,29 -66,65l0 0c0,-36 -29,-65 -65,-65l0 0 0 0 0 0c36,0 65,-29 65,-65z"/>
  <path class="fil0" d="M3921 3348l0 0c0,36 30,65 66,65l0 0c-36,0 -66,30 -66,65l0 0c0,-35 -29,-65 -65,-65l0 0 0 0 0 0c36,0 65,-29 65,-65z"/>
  <path class="fil0" d="M3921 3218l0 0c0,36 30,65 66,65l0 0c-36,0 -66,29 -66,65l0 0c0,-36 -29,-65 -65,-65l0 0 0 0 0 0c36,0 65,-29 65,-65z"/>
  <path class="fil0" d="M3921 3088l0 0c0,36 30,65 66,65l0 0c-36,0 -66,29 -66,65l0 0c0,-36 -29,-65 -65,-65l0 0 0 0 0 0c36,0 65,-29 65,-65z"/>
  <path class="fil0" d="M3921 2957l0 0c0,36 30,66 66,66l0 0c-36,0 -66,29 -66,65l0 0c0,-36 -29,-65 -65,-65l0 0 0 0 0 0c36,0 65,-30 65,-66z"/>
  <path class="fil0" d="M3921 2567l0 0c0,36 30,65 66,65l0 0c-36,0 -66,29 -66,65l0 0c0,-36 -29,-65 -65,-65l0 0 0 0 0 0c36,0 65,-29 65,-65z"/>
  <path class="fil0" d="M3921 2306l0 0c0,36 30,65 66,65l0 0c-36,0 -66,30 -66,65l0 0c0,-35 -29,-65 -65,-65l0 0 0 0 0 0c36,0 65,-29 65,-65z"/>
  <path class="fil0" d="M3921 2176l0 0c0,36 30,65 66,65l0 0c-36,0 -66,29 -66,65l0 0c0,-36 -29,-65 -65,-65l0 0 0 0 0 0c36,0 65,-29 65,-65z"/>
  <path class="fil0" d="M3921 1785l0 0c0,36 30,65 66,65l0 0c-36,0 -66,30 -66,65l0 0c0,-35 -29,-65 -65,-65l0 0 0 0 0 0c36,0 65,-29 65,-65z"/>
  <path class="fil0" d="M3921 1525l0 0c0,36 30,65 66,65l0 0c-36,0 -66,29 -66,65l0 0c0,-36 -29,-65 -65,-65l0 0 0 0 0 0c36,0 65,-29 65,-65z"/>
  <path class="fil0" d="M4052 4651l0 0c0,36 29,65 65,65l0 0c-36,0 -65,29 -65,65l0 0c0,-36 -30,-65 -65,-65l0 0 0 0 0 0c35,0 65,-29 65,-65l0 0z"/>
  <path class="fil0" d="M4052 4520l0 0c0,36 29,66 65,66l0 0c-36,0 -65,29 -65,65l0 0c0,-36 -30,-65 -65,-65l0 0 0 0 0 0c35,0 65,-30 65,-66l0 0z"/>
  <path class="fil0" d="M4052 4130l0 0c0,36 29,65 65,65l0 0c-36,0 -65,29 -65,65l0 0c0,-36 -30,-65 -65,-65l0 0 0 0 0 0c35,0 65,-29 65,-65z"/>
  <path class="fil0" d="M4052 3869l0 0c0,36 29,65 65,65l0 0c-36,0 -65,30 -65,65l0 0c0,-35 -30,-65 -65,-65l0 0 0 0 0 0c35,0 65,-29 65,-65z"/>
  <path class="fil0" d="M4052 3609l0 0c0,36 29,65 65,65l0 0c-36,0 -65,29 -65,65l0 0c0,-36 -30,-65 -65,-65l0 0 0 0 0 0c35,0 65,-29 65,-65z"/>
  <path class="fil0" d="M4052 3478l0 0c0,36 29,66 65,66l0 0c-36,0 -65,29 -65,65l0 0c0,-36 -30,-65 -65,-65l0 0 0 0 0 0c35,0 65,-30 65,-66z"/>
  <path class="fil0" d="M4052 3348l0 0c0,36 29,65 65,65l0 0c-36,0 -65,30 -65,65l0 0c0,-35 -30,-65 -65,-65l0 0 0 0 0 0c35,0 65,-29 65,-65z"/>
  <path class="fil0" d="M4052 2957l0 0c0,36 29,66 65,66l0 0c-36,0 -65,29 -65,65l0 0c0,-36 -30,-65 -65,-65l0 0 0 0 0 0c35,0 65,-30 65,-66z"/>
  <path class="fil0" d="M4052 2697l0 0c0,36 29,65 65,65l0 0c-36,0 -65,29 -65,65l0 0c0,-36 -30,-65 -65,-65l0 0 0 0 0 0c35,0 65,-29 65,-65z"/>
  <path class="fil0" d="M4052 2436l0 0c0,36 29,66 65,66l0 0c-36,0 -65,29 -65,65l0 0c0,-36 -30,-65 -65,-65l0 0 0 0 0 0c35,0 65,-30 65,-66z"/>
  <path class="fil0" d="M4052 1915l0 0c0,36 29,66 65,66l0 0c-36,0 -65,29 -65,65l0 0c0,-36 -30,-65 -65,-65l0 0 0 0 0 0c35,0 65,-30 65,-66z"/>
  <path class="fil0" d="M4052 1785l0 0c0,36 29,65 65,65l0 0c-36,0 -65,30 -65,65l0 0c0,-35 -30,-65 -65,-65l0 0 0 0 0 0c35,0 65,-29 65,-65z"/>
  <path class="fil0" d="M4052 1525l0 0c0,36 29,65 65,65l0 0c-36,0 -65,29 -65,65l0 0c0,-36 -30,-65 -65,-65l0 0 0 0 0 0c35,0 65,-29 65,-65z"/>
  <path class="fil0" d="M4182 4651l0 0c0,36 29,65 65,65l0 0c-36,0 -65,29 -65,65l0 0c0,-36 -29,-65 -65,-65l0 0 0 0 0 0c36,0 65,-29 65,-65l0 0z"/>
  <path class="fil0" d="M4182 4390l0 0c0,36 29,65 65,65l0 0c-36,0 -65,30 -65,65l0 0c0,-35 -29,-65 -65,-65l0 0 0 0 0 0c36,0 65,-29 65,-65z"/>
  <path class="fil0" d="M4182 4130l0 0c0,36 29,65 65,65l0 0c-36,0 -65,29 -65,65l0 0c0,-36 -29,-65 -65,-65l0 0 0 0 0 0c36,0 65,-29 65,-65z"/>
  <path class="fil0" d="M4182 3609l0 0c0,36 29,65 65,65l0 0c-36,0 -65,29 -65,65l0 0c0,-36 -29,-65 -65,-65l0 0 0 0 0 0c36,0 65,-29 65,-65z"/>
  <path class="fil0" d="M4182 3478l0 0c0,36 29,66 65,66l0 0c-36,0 -65,29 -65,65l0 0c0,-36 -29,-65 -65,-65l0 0 0 0 0 0c36,0 65,-30 65,-66z"/>
  <path class="fil0" d="M4182 3218l0 0c0,36 29,65 65,65l0 0c-36,0 -65,29 -65,65l0 0c0,-36 -29,-65 -65,-65l0 0 0 0 0 0c36,0 65,-29 65,-65z"/>
  <path class="fil0" d="M4182 3088l0 0c0,36 29,65 65,65l0 0c-36,0 -65,29 -65,65l0 0c0,-36 -29,-65 -65,-65l0 0 0 0 0 0c36,0 65,-29 65,-65z"/>
  <path class="fil0" d="M4182 2957l0 0c0,36 29,66 65,66l0 0c-36,0 -65,29 -65,65l0 0c0,-36 -29,-65 -65,-65l0 0 0 0 0 0c36,0 65,-30 65,-66z"/>
  <path class="fil0" d="M4182 2827l0 0c0,36 29,65 65,65l0 0c-36,0 -65,30 -65,65l0 0c0,-35 -29,-65 -65,-65l0 0 0 0 0 0c36,0 65,-29 65,-65z"/>
  <path class="fil0" d="M4182 2697l0 0c0,36 29,65 65,65l0 0c-36,0 -65,29 -65,65l0 0c0,-36 -29,-65 -65,-65l0 0 0 0 0 0c36,0 65,-29 65,-65z"/>
  <path class="fil0" d="M4182 2567l0 0c0,36 29,65 65,65l0 0c-36,0 -65,29 -65,65l0 0c0,-36 -29,-65 -65,-65l0 0 0 0 0 0c36,0 65,-29 65,-65z"/>
  <path class="fil0" d="M4182 2176l0 0c0,36 29,65 65,65l0 0c-36,0 -65,29 -65,65l0 0c0,-36 -29,-65 -65,-65l0 0 0 0 0 0c36,0 65,-29 65,-65z"/>
  <path class="fil0" d="M4182 2046l0 0c0,36 29,65 65,65l0 0c-36,0 -65,29 -65,65l0 0c0,-36 -29,-65 -65,-65l0 0 0 0 0 0c36,0 65,-29 65,-65z"/>
  <path class="fil0" d="M4182 1915l0 0c0,36 29,66 65,66l0 0c-36,0 -65,29 -65,65l0 0c0,-36 -29,-65 -65,-65l0 0 0 0 0 0c36,0 65,-30 65,-66z"/>
  <path class="fil0" d="M4182 1785l0 0c0,36 29,65 65,65l0 0c-36,0 -65,30 -65,65l0 0c0,-35 -29,-65 -65,-65l0 0 0 0 0 0c36,0 65,-29 65,-65z"/>
  <path class="fil0" d="M4312 4651l0 0c0,36 29,65 65,65l0 0c-36,0 -65,29 -65,65l0 0c0,-36 -29,-65 -65,-65l0 0 0 0 0 0c36,0 65,-29 65,-65l0 0z"/>
  <path class="fil0" d="M4312 4520l0 0c0,36 29,66 65,66l0 0c-36,0 -65,29 -65,65l0 0c0,-36 -29,-65 -65,-65l0 0 0 0 0 0c36,0 65,-30 65,-66l0 0z"/>
  <path class="fil0" d="M4312 4390l0 0c0,36 29,65 65,65l0 0c-36,0 -65,30 -65,65l0 0c0,-35 -29,-65 -65,-65l0 0 0 0 0 0c36,0 65,-29 65,-65z"/>
  <path class="fil0" d="M4312 4260l0 0c0,36 29,65 65,65l0 0c-36,0 -65,29 -65,65l0 0c0,-36 -29,-65 -65,-65l0 0 0 0 0 0c36,0 65,-29 65,-65z"/>
  <path class="fil0" d="M4312 4130l0 0c0,36 29,65 65,65l0 0c-36,0 -65,29 -65,65l0 0c0,-36 -29,-65 -65,-65l0 0 0 0 0 0c36,0 65,-29 65,-65z"/>
  <path class="fil0" d="M4312 3999l0 0c0,36 29,66 65,66l0 0c-36,0 -65,29 -65,65l0 0c0,-36 -29,-65 -65,-65l0 0 0 0 0 0c36,0 65,-30 65,-66z"/>
  <path class="fil0" d="M4312 3869l0 0c0,36 29,65 65,65l0 0c-36,0 -65,30 -65,65l0 0c0,-35 -29,-65 -65,-65l0 0 0 0 0 0c36,0 65,-29 65,-65z"/>
  <path class="fil0" d="M4312 3739l0 0c0,36 29,65 65,65l0 0c-36,0 -65,29 -65,65l0 0c0,-36 -29,-65 -65,-65l0 0 0 0 0 0c36,0 65,-29 65,-65z"/>
  <path class="fil0" d="M4312 3609l0 0c0,36 29,65 65,65l0 0c-36,0 -65,29 -65,65l0 0c0,-36 -29,-65 -65,-65l0 0 0 0 0 0c36,0 65,-29 65,-65z"/>
  <path class="fil0" d="M4312 3478l0 0c0,36 29,66 65,66l0 0c-36,0 -65,29 -65,65l0 0c0,-36 -29,-65 -65,-65l0 0 0 0 0 0c36,0 65,-30 65,-66z"/>
  <path class="fil0" d="M4312 3348l0 0c0,36 29,65 65,65l0 0c-36,0 -65,30 -65,65l0 0c0,-35 -29,-65 -65,-65l0 0 0 0 0 0c36,0 65,-29 65,-65z"/>
  <path class="fil0" d="M4312 3088l0 0c0,36 29,65 65,65l0 0c-36,0 -65,29 -65,65l0 0c0,-36 -29,-65 -65,-65l0 0 0 0 0 0c36,0 65,-29 65,-65z"/>
  <path class="fil0" d="M4312 2827l0 0c0,36 29,65 65,65l0 0c-36,0 -65,30 -65,65l0 0c0,-35 -29,-65 -65,-65l0 0 0 0 0 0c36,0 65,-29 65,-65z"/>
  <path class="fil0" d="M4312 2436l0 0c0,36 29,66 65,66l0 0c-36,0 -65,29 -65,65l0 0c0,-36 -29,-65 -65,-65l0 0 0 0 0 0c36,0 65,-30 65,-66z"/>
  <path class="fil0" d="M4312 2176l0 0c0,36 29,65 65,65l0 0c-36,0 -65,29 -65,65l0 0c0,-36 -29,-65 -65,-65l0 0 0 0 0 0c36,0 65,-29 65,-65z"/>
  <path class="fil0" d="M4312 1915l0 0c0,36 29,66 65,66l0 0c-36,0 -65,29 -65,65l0 0c0,-36 -29,-65 -65,-65l0 0 0 0 0 0c36,0 65,-30 65,-66z"/>
  <path class="fil0" d="M4312 1785l0 0c0,36 29,65 65,65l0 0c-36,0 -65,30 -65,65l0 0c0,-35 -29,-65 -65,-65l0 0 0 0 0 0c36,0 65,-29 65,-65z"/>
  <path class="fil0" d="M4312 1525l0 0c0,36 29,65 65,65l0 0c-36,0 -65,29 -65,65l0 0c0,-36 -29,-65 -65,-65l0 0 0 0 0 0c36,0 65,-29 65,-65z"/>
  <path class="fil0" d="M4442 4520l0 0c0,36 29,66 65,66l0 0c-35,0 -65,29 -65,65l0 0c0,-36 -29,-65 -65,-65l0 0 0 0 0 0c36,0 65,-30 65,-66l0 0z"/>
  <path class="fil0" d="M4442 3999l0 0c0,36 29,66 65,66l0 0c-35,0 -65,29 -65,65l0 0c0,-36 -29,-65 -65,-65l0 0 0 0 0 0c36,0 65,-30 65,-66z"/>
  <path class="fil0" d="M4442 3609l0 0c0,36 29,65 65,65l0 0c-35,0 -65,29 -65,65l0 0c0,-36 -29,-65 -65,-65l0 0 0 0 0 0c36,0 65,-29 65,-65z"/>
  <path class="fil0" d="M4442 3348l0 0c0,36 29,65 65,65l0 0c-35,0 -65,30 -65,65l0 0c0,-35 -29,-65 -65,-65l0 0 0 0 0 0c36,0 65,-29 65,-65z"/>
  <path class="fil0" d="M4442 3218l0 0c0,36 29,65 65,65l0 0c-35,0 -65,29 -65,65l0 0c0,-36 -29,-65 -65,-65l0 0 0 0 0 0c36,0 65,-29 65,-65z"/>
  <path class="fil0" d="M4442 2957l0 0c0,36 29,66 65,66l0 0c-35,0 -65,29 -65,65l0 0c0,-36 -29,-65 -65,-65l0 0 0 0 0 0c36,0 65,-30 65,-66z"/>
  <path class="fil0" d="M4442 2827l0 0c0,36 29,65 65,65l0 0c-35,0 -65,30 -65,65l0 0c0,-35 -29,-65 -65,-65l0 0 0 0 0 0c36,0 65,-29 65,-65z"/>
  <path class="fil0" d="M4442 2046l0 0c0,36 29,65 65,65l0 0c-35,0 -65,29 -65,65l0 0c0,-36 -29,-65 -65,-65l0 0 0 0 0 0c36,0 65,-29 65,-65z"/>
  <path class="fil0" d="M4442 1785l0 0c0,36 29,65 65,65l0 0c-35,0 -65,30 -65,65l0 0c0,-35 -29,-65 -65,-65l0 0 0 0 0 0c36,0 65,-29 65,-65z"/>
  <path class="fil0" d="M4442 1655l0 0c0,36 29,65 65,65l0 0c-35,0 -65,29 -65,65l0 0c0,-36 -29,-65 -65,-65l0 0 0 0 0 0c36,0 65,-29 65,-65z"/>
  <path class="fil0" d="M4573 4390l0 0c0,36 29,65 65,65l0 0c-36,0 -65,30 -65,65l0 0c0,-35 -30,-65 -66,-65l0 0 0 0 0 0c36,0 66,-29 66,-65z"/>
  <path class="fil0" d="M4573 4130l0 0c0,36 29,65 65,65l0 0c-36,0 -65,29 -65,65l0 0c0,-36 -30,-65 -66,-65l0 0 0 0 0 0c36,0 66,-29 66,-65z"/>
  <path class="fil0" d="M4573 3869l0 0c0,36 29,65 65,65l0 0c-36,0 -65,30 -65,65l0 0c0,-35 -30,-65 -66,-65l0 0 0 0 0 0c36,0 66,-29 66,-65z"/>
  <path class="fil0" d="M4573 3478l0 0c0,36 29,66 65,66l0 0c-36,0 -65,29 -65,65l0 0c0,-36 -30,-65 -66,-65l0 0 0 0 0 0c36,0 66,-30 66,-66z"/>
  <path class="fil0" d="M4573 3348l0 0c0,36 29,65 65,65l0 0c-36,0 -65,30 -65,65l0 0c0,-35 -30,-65 -66,-65l0 0 0 0 0 0c36,0 66,-29 66,-65z"/>
  <path class="fil0" d="M4573 3218l0 0c0,36 29,65 65,65l0 0c-36,0 -65,29 -65,65l0 0c0,-36 -30,-65 -66,-65l0 0 0 0 0 0c36,0 66,-29 66,-65z"/>
  <path class="fil0" d="M4573 3088l0 0c0,36 29,65 65,65l0 0c-36,0 -65,29 -65,65l0 0c0,-36 -30,-65 -66,-65l0 0 0 0 0 0c36,0 66,-29 66,-65z"/>
  <path class="fil0" d="M4573 2957l0 0c0,36 29,66 65,66l0 0c-36,0 -65,29 -65,65l0 0c0,-36 -30,-65 -66,-65l0 0 0 0 0 0c36,0 66,-30 66,-66z"/>
  <path class="fil0" d="M4573 2827l0 0c0,36 29,65 65,65l0 0c-36,0 -65,30 -65,65l0 0c0,-35 -30,-65 -66,-65l0 0 0 0 0 0c36,0 66,-29 66,-65z"/>
  <path class="fil0" d="M4573 2306l0 0c0,36 29,65 65,65l0 0c-36,0 -65,30 -65,65l0 0c0,-35 -30,-65 -66,-65l0 0 0 0 0 0c36,0 66,-29 66,-65z"/>
  <path class="fil0" d="M4573 1785l0 0c0,36 29,65 65,65l0 0c-36,0 -65,30 -65,65l0 0c0,-35 -30,-65 -66,-65l0 0 0 0 0 0c36,0 66,-29 66,-65z"/>
  <path class="fil0" d="M4573 1655l0 0c0,36 29,65 65,65l0 0c-36,0 -65,29 -65,65l0 0c0,-36 -30,-65 -66,-65l0 0 0 0 0 0c36,0 66,-29 66,-65z"/>
  <path class="fil0" d="M4703 4520l0 0c0,36 29,66 65,66l0 0c-36,0 -65,29 -65,65l0 0c0,-36 -29,-65 -65,-65l0 0 0 0 0 0c36,0 65,-30 65,-66l0 0z"/>
  <path class="fil0" d="M4703 3739l0 0c0,36 29,65 65,65l0 0c-36,0 -65,29 -65,65l0 0c0,-36 -29,-65 -65,-65l0 0 0 0 0 0c36,0 65,-29 65,-65z"/>
  <path class="fil0" d="M4703 3478l0 0c0,36 29,66 65,66l0 0c-36,0 -65,29 -65,65l0 0c0,-36 -29,-65 -65,-65l0 0 0 0 0 0c36,0 65,-30 65,-66z"/>
  <path class="fil0" d="M4703 3348l0 0c0,36 29,65 65,65l0 0c-36,0 -65,30 -65,65l0 0c0,-35 -29,-65 -65,-65l0 0 0 0 0 0c36,0 65,-29 65,-65z"/>
  <path class="fil0" d="M4703 2697l0 0c0,36 29,65 65,65l0 0c-36,0 -65,29 -65,65l0 0c0,-36 -29,-65 -65,-65l0 0 0 0 0 0c36,0 65,-29 65,-65z"/>
  <path class="fil0" d="M4703 2046l0 0c0,36 29,65 65,65l0 0c-36,0 -65,29 -65,65l0 0c0,-36 -29,-65 -65,-65l0 0 0 0 0 0c36,0 65,-29 65,-65z"/>
  <path class="fil0" d="M4703 1915l0 0c0,36 29,66 65,66l0 0c-36,0 -65,29 -65,65l0 0c0,-36 -29,-65 -65,-65l0 0 0 0 0 0c36,0 65,-30 65,-66z"/>
  <path class="fil0" d="M4703 1785l0 0c0,36 29,65 65,65l0 0c-36,0 -65,30 -65,65l0 0c0,-35 -29,-65 -65,-65l0 0 0 0 0 0c36,0 65,-29 65,-65z"/>
  <path class="fil0" d="M4703 1655l0 0c0,36 29,65 65,65l0 0c-36,0 -65,29 -65,65l0 0c0,-36 -29,-65 -65,-65l0 0 0 0 0 0c36,0 65,-29 65,-65z"/>
  <path class="fil0" d="M4833 4130l0 0c0,36 29,65 65,65l0 0c-36,0 -65,29 -65,65l0 0c0,-36 -29,-65 -65,-65l0 0 0 0 0 0c36,0 65,-29 65,-65z"/>
  <path class="fil0" d="M4833 3999l0 0c0,36 29,66 65,66l0 0c-36,0 -65,29 -65,65l0 0c0,-36 -29,-65 -65,-65l0 0 0 0 0 0c36,0 65,-30 65,-66z"/>
  <path class="fil0" d="M4833 3869l0 0c0,36 29,65 65,65l0 0c-36,0 -65,30 -65,65l0 0c0,-35 -29,-65 -65,-65l0 0 0 0 0 0c36,0 65,-29 65,-65z"/>
  <path class="fil0" d="M4833 3478l0 0c0,36 29,66 65,66l0 0c-36,0 -65,29 -65,65l0 0c0,-36 -29,-65 -65,-65l0 0 0 0 0 0c36,0 65,-30 65,-66z"/>
  <path class="fil0" d="M4833 3218l0 0c0,36 29,65 65,65l0 0c-36,0 -65,29 -65,65l0 0c0,-36 -29,-65 -65,-65l0 0 0 0 0 0c36,0 65,-29 65,-65z"/>
  <path class="fil0" d="M4833 2827l0 0c0,36 29,65 65,65l0 0c-36,0 -65,30 -65,65l0 0c0,-35 -29,-65 -65,-65l0 0 0 0 0 0c36,0 65,-29 65,-65z"/>
  <path class="fil0" d="M4833 2436l0 0c0,36 29,66 65,66l0 0c-36,0 -65,29 -65,65l0 0c0,-36 -29,-65 -65,-65l0 0 0 0 0 0c36,0 65,-30 65,-66z"/>
  <path class="fil0" d="M4833 2176l0 0c0,36 29,65 65,65l0 0c-36,0 -65,29 -65,65l0 0c0,-36 -29,-65 -65,-65l0 0 0 0 0 0c36,0 65,-29 65,-65z"/>
  <path class="fil0" d="M4833 1915l0 0c0,36 29,66 65,66l0 0c-36,0 -65,29 -65,65l0 0c0,-36 -29,-65 -65,-65l0 0 0 0 0 0c36,0 65,-30 65,-66z"/>
  <path class="fil0" d="M665 3608l0 0c0,36 29,65 65,65l0 0c-36,0 -65,29 -65,65l0 0c0,-36 -29,-65 -65,-65l0 0 0 0 0 0c36,0 65,-29 65,-65z"/>
  <path class="fil0" d="M926 3608l0 0c0,36 29,65 65,65l0 0c-36,0 -65,29 -65,65l0 0c0,-36 -30,-65 -66,-65l0 0 0 0 0 0c36,0 66,-29 66,-65z"/>
  <path class="fil0" d="M1056 3608l0 0c0,36 29,65 65,65l0 0c-36,0 -65,29 -65,65l0 0c0,-36 -29,-65 -65,-65l0 0 0 0 0 0c36,0 65,-29 65,-65z"/>
  <path class="fil0" d="M1447 3608l0 0c0,36 29,65 65,65l0 0c-36,0 -65,29 -65,65l0 0c-1,-36 -30,-65 -66,-65l0 0 0 0 0 0c36,0 66,-29 66,-65z"/>
  <path class="fil0" d="M1577 3608l0 0c0,36 29,65 65,65l0 0c-36,0 -65,29 -65,65l0 0c0,-36 -29,-65 -65,-65l0 0 0 0 0 0c36,0 65,-29 65,-65z"/>
  <path class="fil0" d="M795 3478l0 0c0,36 30,65 65,65l0 0c-35,0 -65,29 -65,65l0 0c0,-36 -29,-65 -65,-65l0 0 0 0 0 0c36,0 65,-29 65,-65z"/>
  <path class="fil0" d="M926 3478l0 0c0,36 29,65 65,65l0 0c-36,0 -65,29 -65,65l0 0c0,-36 -30,-65 -66,-65l0 0 0 0 0 0c36,0 66,-29 66,-65z"/>
  <path class="fil0" d="M926 3347l0 0c0,36 29,65 65,66l0 0c-36,0 -65,29 -65,65l0 0c0,-36 -30,-65 -66,-65l0 0 0 0 0 0c36,0 66,-30 66,-66z"/>
  <path class="fil0" d="M1186 3347l0 0c0,36 29,65 65,66l0 0c-36,0 -65,29 -65,65l0 0c0,-36 -29,-65 -65,-65l0 0 0 0 0 0c36,0 65,-30 65,-66z"/>
  <path class="fil0" d="M1447 3347l0 0c0,36 29,65 65,66l0 0c-36,0 -65,29 -65,65l0 0c-1,-36 -30,-65 -66,-65l0 0 0 0 0 0c36,0 66,-30 66,-66z"/>
  <path class="fil0" d="M1577 3347l0 0c0,36 29,65 65,66l0 0c-36,0 -65,29 -65,65l0 0c0,-36 -29,-65 -65,-65l0 0 0 0 0 0c36,0 65,-30 65,-66z"/>
  <path class="fil0" d="M665 3217l0 0c0,36 29,65 65,65l0 0c-36,0 -65,29 -65,65l0 0c0,-36 -29,-65 -65,-65l0 0 0 0 0 0c36,0 65,-29 65,-65z"/>
  <path class="fil0" d="M795 3217l0 0c0,36 30,65 65,65l0 0c-35,0 -65,29 -65,65l0 0c0,-36 -29,-65 -65,-65l0 0 0 0 0 0c36,0 65,-29 65,-65z"/>
  <path class="fil0" d="M926 3217l0 0c0,36 29,65 65,65l0 0c-36,0 -65,29 -65,65l0 0c0,-36 -30,-65 -66,-65l0 0 0 0 0 0c36,0 66,-29 66,-65z"/>
  <path class="fil0" d="M665 3087l0 0c0,36 29,65 65,65l0 0c-36,0 -65,29 -65,65l0 0c0,-36 -29,-65 -65,-65l0 0 0 0 0 0c36,0 65,-29 65,-65z"/>
  <path class="fil0" d="M795 3087l0 0c0,36 30,65 65,65l0 0c-35,0 -65,29 -65,65l0 0c0,-36 -29,-65 -65,-65l0 0 0 0 0 0c36,0 65,-29 65,-65z"/>
  <path class="fil0" d="M1447 3087l0 0c0,36 29,65 65,65l0 0c-36,0 -65,29 -65,65l0 0c-1,-36 -30,-65 -66,-65l0 0 0 0 0 0c36,0 66,-29 66,-65z"/>
  <path class="fil0" d="M1577 3087l0 0c0,36 29,65 65,65l0 0c-36,0 -65,29 -65,65l0 0c0,-36 -29,-65 -65,-65l0 0 0 0 0 0c36,0 65,-29 65,-65z"/>
  <path class="fil0" d="M926 2957l0 0c0,36 29,65 65,65l0 0c-36,0 -65,29 -65,65l0 0c0,-36 -30,-65 -66,-65l0 0 0 0 0 0c36,0 66,-29 66,-65z"/>
  <path class="fil0" d="M1186 2957l0 0c0,36 29,65 65,65l0 0c-36,0 -65,29 -65,65l0 0c0,-36 -29,-65 -65,-65l0 0 0 0 0 0c36,0 65,-29 65,-65z"/>
  <path class="fil0" d="M1316 2957l0 0c0,36 29,65 65,65l0 0c-36,0 -65,29 -65,65l0 0c0,-36 -29,-65 -65,-65l0 0 0 0 0 0c36,0 65,-29 65,-65z"/>
  <path class="fil0" d="M665 2826l0 0c0,36 29,65 65,66l0 0c-36,0 -65,29 -65,65l0 0c0,-36 -29,-65 -65,-65l0 0 0 0 0 0c36,0 65,-30 65,-66z"/>
  <path class="fil0" d="M1056 2826l0 0c0,36 29,65 65,66l0 0c-36,0 -65,29 -65,65l0 0c0,-36 -29,-65 -65,-65l0 0 0 0 0 0c36,0 65,-30 65,-66z"/>
  <path class="fil0" d="M1316 2826l0 0c0,36 29,65 65,66l0 0c-36,0 -65,29 -65,65l0 0c0,-36 -29,-65 -65,-65l0 0 0 0 0 0c36,0 65,-30 65,-66z"/>
  <path class="fil0" d="M1447 2826l0 0c0,36 29,65 65,66l0 0c-36,0 -65,29 -65,65l0 0c-1,-36 -30,-65 -66,-65l0 0 0 0 0 0c36,0 66,-30 66,-66z"/>
  <path class="fil0" d="M1577 2826l0 0c0,36 29,65 65,66l0 0c-36,0 -65,29 -65,65l0 0c0,-36 -29,-65 -65,-65l0 0 0 0 0 0c36,0 65,-30 65,-66z"/>
  <path class="fil0" d="M1056 2696l0 0c0,36 29,65 65,65l0 0c-36,0 -65,29 -65,65l0 0c0,-36 -29,-65 -65,-65l0 0 0 0 0 0c36,0 65,-29 65,-65z"/>
  <path class="fil0" d="M1577 2696l0 0c0,36 29,65 65,65l0 0c-36,0 -65,29 -65,65l0 0c0,-36 -29,-65 -65,-65l0 0 0 0 0 0c36,0 65,-29 65,-65z"/>
  <path class="fil0" d="M665 2566l0 0c0,36 29,65 65,65l0 0c-36,0 -65,29 -65,65l0 0c0,-36 -29,-65 -65,-65l0 0 0 0 0 0c36,0 65,-29 65,-65z"/>
  <path class="fil0" d="M795 2566l0 0c0,36 30,65 65,65l0 0c-35,0 -65,29 -65,65l0 0c0,-36 -29,-65 -65,-65l0 0 0 0 0 0c36,0 65,-29 65,-65z"/>
  <path class="fil0" d="M926 2566l0 0c0,36 29,65 65,65l0 0c-36,0 -65,29 -65,65l0 0c0,-36 -30,-65 -66,-65l0 0 0 0 0 0c36,0 66,-29 66,-65z"/>
  <path class="fil0" d="M1056 2566l0 0c0,36 29,65 65,65l0 0c-36,0 -65,29 -65,65l0 0c0,-36 -29,-65 -65,-65l0 0 0 0 0 0c36,0 65,-29 65,-65z"/>
  <path class="fil0" d="M1186 2566l0 0c0,36 29,65 65,65l0 0c-36,0 -65,29 -65,65l0 0c0,-36 -29,-65 -65,-65l0 0 0 0 0 0c36,0 65,-29 65,-65z"/>
  <path class="fil0" d="M1316 2566l0 0c0,36 29,65 65,65l0 0c-36,0 -65,29 -65,65l0 0c0,-36 -29,-65 -65,-65l0 0 0 0 0 0c36,0 65,-29 65,-65z"/>
  <path class="fil0" d="M1447 2566l0 0c0,36 29,65 65,65l0 0c-36,0 -65,29 -65,65l0 0c-1,-36 -30,-65 -66,-65l0 0 0 0 0 0c36,0 66,-29 66,-65z"/>
  <path class="fil0" d="M665 2436l0 0c0,36 29,65 65,65l0 0c-36,0 -65,29 -65,65l0 0c0,-36 -29,-65 -65,-65l0 0 0 0 0 0c36,0 65,-29 65,-65z"/>
  <path class="fil0" d="M926 2436l0 0c0,36 29,65 65,65l0 0c-36,0 -65,29 -65,65l0 0c0,-36 -30,-65 -66,-65l0 0 0 0 0 0c36,0 66,-29 66,-65z"/>
  <path class="fil0" d="M1186 2436l0 0c0,36 29,65 65,65l0 0c-36,0 -65,29 -65,65l0 0c0,-36 -29,-65 -65,-65l0 0 0 0 0 0c36,0 65,-29 65,-65z"/>
  <path class="fil0" d="M1577 2436l0 0c0,36 29,65 65,65l0 0c-36,0 -65,29 -65,65l0 0c0,-36 -29,-65 -65,-65l0 0 0 0 0 0c36,0 65,-29 65,-65z"/>
  <path class="fil0" d="M665 2305l0 0c0,36 29,65 65,65l0 1c-36,0 -65,29 -65,65l0 0c0,-36 -29,-65 -65,-65l0 0 0 -1 0 0c36,0 65,-29 65,-65z"/>
  <path class="fil0" d="M1056 2305l0 0c0,36 29,65 65,65l0 1c-36,0 -65,29 -65,65l0 0c0,-36 -29,-65 -65,-65l0 0 0 -1 0 0c36,0 65,-29 65,-65z"/>
  <path class="fil0" d="M1316 2305l0 0c0,36 29,65 65,65l0 1c-36,0 -65,29 -65,65l0 0c0,-36 -29,-65 -65,-65l0 0 0 -1 0 0c36,0 65,-29 65,-65z"/>
  <path class="fil0" d="M1447 2305l0 0c0,36 29,65 65,65l0 1c-36,0 -65,29 -65,65l0 0c-1,-36 -30,-65 -66,-65l0 0 0 -1 0 0c36,0 66,-29 66,-65z"/>
  <path class="fil0" d="M1577 2305l0 0c0,36 29,65 65,65l0 1c-36,0 -65,29 -65,65l0 0c0,-36 -29,-65 -65,-65l0 0 0 -1 0 0c36,0 65,-29 65,-65z"/>
  <path class="fil0" d="M795 2175l0 0c0,36 30,65 65,65l0 0c-35,0 -65,29 -65,65l0 0c0,-36 -29,-65 -65,-65l0 0 0 0 0 0c36,0 65,-29 65,-65z"/>
  <path class="fil0" d="M926 2175l0 0c0,36 29,65 65,65l0 0c-36,0 -65,29 -65,65l0 0c0,-36 -30,-65 -66,-65l0 0 0 0 0 0c36,0 66,-29 66,-65z"/>
  <path class="fil0" d="M1186 2175l0 0c0,36 29,65 65,65l0 0c-36,0 -65,29 -65,65l0 0c0,-36 -29,-65 -65,-65l0 0 0 0 0 0c36,0 65,-29 65,-65z"/>
  <path class="fil0" d="M1316 2175l0 0c0,36 29,65 65,65l0 0c-36,0 -65,29 -65,65l0 0c0,-36 -29,-65 -65,-65l0 0 0 0 0 0c36,0 65,-29 65,-65z"/>
  <path class="fil0" d="M795 2045l0 0c0,36 30,65 65,65l0 0c-35,0 -65,29 -65,65l0 0c0,-36 -29,-65 -65,-65l0 0 0 0 0 0c36,0 65,-29 65,-65z"/>
  <path class="fil0" d="M1056 2045l0 0c0,36 29,65 65,65l0 0c-36,0 -65,29 -65,65l0 0c0,-36 -29,-65 -65,-65l0 0 0 0 0 0c36,0 65,-29 65,-65z"/>
  <path class="fil0" d="M1316 2045l0 0c0,36 29,65 65,65l0 0c-36,0 -65,29 -65,65l0 0c0,-36 -29,-65 -65,-65l0 0 0 0 0 0c36,0 65,-29 65,-65z"/>
  <path class="fil0" d="M1447 2045l0 0c0,36 29,65 65,65l0 0c-36,0 -65,29 -65,65l0 0c-1,-36 -30,-65 -66,-65l0 0 0 0 0 0c36,0 66,-29 66,-65z"/>
  <path class="fil0" d="M1577 2045l0 0c0,36 29,65 65,65l0 0c-36,0 -65,29 -65,65l0 0c0,-36 -29,-65 -65,-65l0 0 0 0 0 0c36,0 65,-29 65,-65z"/>
  <path class="fil0" d="M665 1915l0 0c0,36 29,65 65,65l0 0c-36,0 -65,29 -65,65l0 0c0,-36 -29,-65 -65,-65l0 0 0 0 0 0c36,0 65,-29 65,-65z"/>
  <path class="fil0" d="M1186 1915l0 0c0,36 29,65 65,65l0 0c-36,0 -65,29 -65,65l0 0c0,-36 -29,-65 -65,-65l0 0 0 0 0 0c36,0 65,-29 65,-65z"/>
  <path class="fil0" d="M795 1784l0 0c0,36 30,65 65,65l0 1c-35,0 -65,29 -65,65l0 0c0,-36 -29,-65 -65,-65l0 0 0 -1 0 0c36,0 65,-29 65,-65z"/>
  <path class="fil0" d="M926 1784l0 0c0,36 29,65 65,65l0 1c-36,0 -65,29 -65,65l0 0c0,-36 -30,-65 -66,-65l0 0 0 -1 0 0c36,0 66,-29 66,-65z"/>
  <path class="fil0" d="M1447 1784l0 0c0,36 29,65 65,65l0 1c-36,0 -65,29 -65,65l0 0c-1,-36 -30,-65 -66,-65l0 0 0 -1 0 0c36,0 66,-29 66,-65z"/>
  <path class="fil0" d="M1577 1784l0 0c0,36 29,65 65,65l0 1c-36,0 -65,29 -65,65l0 0c0,-36 -29,-65 -65,-65l0 0 0 -1 0 0c36,0 65,-29 65,-65z"/>
  <path class="fil0" d="M795 1654l0 0c0,36 30,65 65,65l0 0c-35,0 -65,29 -65,65l0 0c0,-36 -29,-65 -65,-65l0 0 0 0 0 0c36,0 65,-29 65,-65z"/>
  <path class="fil0" d="M926 1654l0 0c0,36 29,65 65,65l0 0c-36,0 -65,29 -65,65l0 0c0,-36 -30,-65 -66,-65l0 0 0 0 0 0c36,0 66,-29 66,-65z"/>
  <path class="fil0" d="M1186 1654l0 0c0,36 29,65 65,65l0 0c-36,0 -65,29 -65,65l0 0c0,-36 -29,-65 -65,-65l0 0 0 0 0 0c36,0 65,-29 65,-65z"/>
  <path class="fil0" d="M1577 1654l0 0c0,36 29,65 65,65l0 0c-36,0 -65,29 -65,65l0 0c0,-36 -29,-65 -65,-65l0 0 0 0 0 0c36,0 65,-29 65,-65z"/>
  <path class="fil0" d="M926 1524l0 0c0,36 29,65 65,65l0 0c-36,0 -65,29 -65,65l0 0c0,-36 -30,-65 -66,-65l0 0 0 0 0 0c36,0 66,-29 66,-65z"/>
  <path class="fil0" d="M1056 1524l0 0c0,36 29,65 65,65l0 0c-36,0 -65,29 -65,65l0 0c0,-36 -29,-65 -65,-65l0 0 0 0 0 0c36,0 65,-29 65,-65z"/>
  <path class="fil0" d="M1447 1524l0 0c0,36 29,65 65,65l0 0c-36,0 -65,29 -65,65l0 0c-1,-36 -30,-65 -66,-65l0 0 0 0 0 0c36,0 66,-29 66,-65z"/>
  <path class="fil0" d="M1577 1524l0 0c0,36 29,65 65,65l0 0c-36,0 -65,29 -65,65l0 0c0,-36 -29,-65 -65,-65l0 0 0 0 0 0c36,0 65,-29 65,-65z"/>
  <path class="fil0" d="M1383 481l-130 0 -131 0 0 0 -130 0 -130 0 -130 0 -131 0 0 130 0 131 0 130 0 130 0 131 0 130 0 130 131 0 130 0 130 0 130 0 0 0 131 0 130 0 129 0 0 -912 -129 0zm0 261l0 130 0 130 0 131 0 130 -130 0 -131 0 0 0 -130 0 -130 0 -130 0 0 -130 0 -131 0 -130 0 -130 0 -131 130 0 130 0 130 0 0 0 131 0 130 0 0 131z"/>
  <polygon class="fil0" points="1121,742 1121,742 991,742 861,742 861,872 861,1002 861,1133 991,1133 1121,1133 1121,1133 1251,1133 1251,1002 1251,872 1251,742 "/>
  <path class="fil0" d="M4771 481l-130 0 -131 0 0 0 -130 0 -130 0 -130 0 -131 0 0 130 0 131 0 130 0 130 0 131 0 130 0 130 131 0 130 0 130 0 130 0 0 0 131 0 130 0 129 0 0 -912 -129 0zm0 261l0 130 0 130 0 131 0 130 -130 0 -131 0 0 0 -130 0 -130 0 -130 0 0 -130 0 -131 0 -130 0 -130 0 -131 130 0 130 0 130 0 0 0 131 0 130 0 0 131z"/>
  <polygon class="fil0" points="4509,742 4509,742 4379,742 4249,742 4249,872 4249,1002 4249,1133 4379,1133 4509,1133 4509,1133 4639,1133 4639,1002 4639,872 4639,742 "/>
  <path class="fil0" d="M1382 3869l-130 0 -130 0 0 0 -131 0 -130 0 -130 0 -130 0 0 130 0 130 0 131 0 130 0 130 0 131 0 130 130 0 130 0 130 0 131 0 0 0 130 0 130 0 129 0 0 -912 -129 0zm0 260l0 131 0 130 0 130 0 131 -130 0 -130 0 0 0 -131 0 -130 0 -130 0 0 -131 0 -130 0 -130 0 -131 0 -130 130 0 130 0 131 0 0 0 130 0 130 0 0 130z"/>
  <polygon class="fil0" points="1120,4129 1120,4129 990,4129 860,4129 860,4260 860,4390 860,4520 990,4520 1120,4520 1120,4520 1251,4520 1251,4390 1251,4260 1251,4129 "/>
  <path class="fil2" d="M837 5359c26,-36 53,-64 84,-84 30,-20 60,-30 91,-30 45,0 68,31 68,93l0 21c23,-35 48,-63 76,-83 28,-21 54,-31 79,-31 25,0 45,11 60,33 15,22 23,52 23,89 0,14 -1,27 -2,41l-13 178 -2 24 3 10c3,9 9,13 17,13 18,0 35,-14 53,-43 5,-6 9,-9 14,-9 7,0 11,4 11,13 0,13 -11,32 -33,58 -29,33 -57,50 -86,50 -28,0 -42,-26 -42,-78 0,-9 1,-22 2,-38l13 -178c0,-11 1,-20 1,-28 0,-58 -19,-87 -57,-87 -27,0 -51,19 -71,58 -21,39 -35,90 -43,153l-21 170c-1,11 -4,19 -9,22 -5,4 -15,6 -28,6 -18,0 -27,-6 -27,-18l1 -10 30 -248c1,-14 2,-31 2,-50 0,-26 -6,-46 -17,-62 -12,-15 -28,-22 -48,-22 -28,0 -53,18 -77,56 -23,37 -38,83 -44,137l-22 189c-1,11 -4,19 -9,22 -5,4 -15,6 -28,6 -18,0 -27,-6 -27,-18 0,-2 0,-5 1,-10l31 -267c2,-11 2,-20 2,-28 0,-37 -8,-55 -23,-57 -16,-1 -31,16 -45,51 -3,8 -7,13 -10,12 -6,0 -9,-6 -9,-17 0,-24 10,-51 31,-79 20,-29 39,-43 57,-43 29,0 43,38 43,113zm712 174l-17 141 0 6c-2,15 -13,22 -34,22 -20,0 -29,-6 -29,-18 0,-4 0,-8 0,-10l81 -681c2,-16 3,-26 3,-32 0,-12 -10,-18 -29,-18l-27 0c-15,0 -22,-4 -22,-11 1,-8 8,-13 22,-13 42,-2 71,-5 89,-9 10,-2 19,-4 26,-4 6,0 9,5 10,13l0 7 -63 523c0,3 0,5 -1,7l0 5c0,6 1,8 5,9 2,0 6,-2 12,-7l7 -5 33 -25c60,-45 98,-91 115,-138 8,-22 14,-36 21,-43 6,-7 15,-11 27,-11 20,0 31,12 31,35 0,34 -40,80 -120,138 -17,12 -26,20 -26,23 0,2 1,5 5,9 9,12 18,27 27,43l60 111c10,16 18,24 27,24 8,0 17,-5 27,-14 11,-10 20,-21 26,-33 7,-15 13,-22 19,-21 5,0 8,4 8,11 0,25 -12,54 -34,86 -23,33 -43,49 -60,49 -17,0 -32,-13 -46,-37l-95 -176c-5,-10 -11,-16 -15,-16 -4,0 -9,2 -14,5l-21 12c-16,9 -26,24 -28,43zm653 47c-62,84 -127,126 -193,126 -26,0 -47,-10 -64,-31 -17,-21 -25,-48 -25,-81 0,-44 10,-90 30,-140 20,-49 46,-92 78,-128 48,-53 98,-80 151,-80 18,0 38,3 60,11 8,2 15,4 19,4 11,0 24,-13 39,-39 8,-13 14,-19 19,-18 4,0 7,4 7,10 0,3 -1,6 -2,10 -1,2 -3,13 -7,31l-13 61c-7,35 -14,80 -22,135 -7,54 -11,92 -11,112 0,46 7,69 21,69 8,0 17,-6 29,-18 11,-13 20,-26 26,-40 5,-12 10,-18 16,-18 6,0 9,3 9,11 0,24 -14,52 -43,85 -29,33 -53,50 -73,50 -14,0 -25,-9 -31,-25 -7,-17 -14,-49 -20,-97zm-23 -310c-38,0 -74,22 -108,67 -23,29 -42,66 -58,111 -16,45 -23,84 -23,119 0,56 23,83 71,83 30,0 61,-16 93,-50 31,-34 49,-69 54,-107 2,-21 5,-38 8,-52l10 -50c6,-28 10,-47 13,-57 2,-10 3,-19 3,-27 0,-10 -6,-18 -19,-26 -14,-7 -28,-11 -44,-11zm373 118l76 86c24,27 36,59 36,97 0,38 -14,70 -43,96 -29,26 -64,39 -105,39 -32,0 -58,-6 -81,-20 -22,-13 -33,-29 -33,-48 0,-23 11,-34 33,-34 13,0 25,9 36,28l11 20c10,18 24,27 44,27 21,0 39,-7 54,-21 16,-14 23,-31 23,-50 0,-30 -14,-61 -43,-92l-60 -65c-28,-30 -42,-62 -42,-96 0,-36 12,-64 36,-84 24,-21 56,-31 98,-31 58,0 87,18 87,53 0,23 -12,35 -34,35 -11,0 -21,-6 -28,-17l-12 -18c-11,-17 -26,-25 -45,-25 -31,0 -46,17 -46,52 0,17 12,40 38,68zm321 -48c54,-66 106,-99 154,-99 27,0 48,11 64,32 15,20 23,49 23,85 0,14 0,27 -1,36l-16 142c-2,15 -3,31 -3,48 0,33 9,49 25,49 25,0 47,-19 68,-57 5,-8 9,-11 14,-11 7,0 9,3 9,10 0,17 -10,39 -31,68 -29,39 -61,59 -97,59 -33,0 -50,-36 -50,-106 0,-13 1,-29 2,-48l10 -155c1,-13 2,-24 2,-31 0,-43 -17,-65 -50,-65 -32,0 -62,14 -89,40 -25,25 -41,62 -47,113l-26 224 -1 6c-2,15 -13,22 -34,22 -19,0 -29,-6 -29,-18l0 -4 1 -6 81 -681c2,-16 3,-26 3,-31 1,-13 -9,-19 -30,-19l-27 0c-15,0 -22,-4 -21,-11 0,-8 7,-13 21,-13 41,-2 70,-5 89,-9 11,-2 19,-4 25,-4 7,0 11,5 10,13 0,2 0,4 0,7l-49 414zm435 130l22 -138c2,-10 3,-19 3,-27 0,-15 -11,-23 -32,-23l-29 0c-16,0 -24,-3 -23,-11 0,-9 8,-14 23,-14 33,0 65,-3 95,-9 12,-2 21,-3 28,-3 7,0 11,4 11,13l-1 6 -29 154c-15,76 -22,134 -22,174 0,22 6,34 17,34 16,2 32,-14 48,-46 4,-9 9,-13 13,-13 6,0 9,4 8,12 -1,24 -15,51 -42,79 -26,29 -50,44 -70,44 -11,0 -20,-8 -27,-25 -7,-16 -10,-38 -10,-64 0,-29 5,-77 17,-143zm92 -454c3,1 6,4 9,10 6,12 10,19 11,20l12 19c3,5 5,8 5,11 0,3 -3,8 -8,13 -8,8 -18,20 -29,34 -4,6 -8,9 -12,9 -4,0 -8,-4 -11,-11 -8,-16 -15,-29 -20,-36 -4,-5 -5,-9 -5,-12 0,-4 2,-8 5,-13l15 -16c2,-2 7,-8 14,-18 6,-7 10,-10 14,-10zm254 343c25,-36 53,-64 83,-84 31,-20 61,-30 91,-30 46,0 68,31 68,93l0 21c23,-35 48,-63 76,-83 28,-21 55,-31 80,-31 25,0 45,11 60,33 15,22 22,52 22,89 0,14 0,27 -1,41l-13 178 -2 24 2 10c3,9 9,13 18,13 17,0 35,-14 53,-43 4,-6 9,-9 14,-9 7,0 10,4 10,13 0,13 -11,32 -32,58 -29,33 -58,50 -86,50 -28,0 -42,-26 -42,-78 0,-9 0,-22 1,-38l13 -178c1,-11 1,-20 1,-28 0,-58 -19,-87 -57,-87 -26,0 -50,19 -71,58 -21,39 -35,90 -43,153l-20 170c-2,11 -5,19 -10,22 -5,4 -14,6 -28,6 -18,0 -26,-6 -26,-18l1 -10 29 -248c2,-14 3,-31 3,-50 0,-26 -6,-46 -18,-62 -12,-15 -27,-22 -47,-22 -28,0 -54,18 -77,56 -24,37 -38,83 -45,137l-21 189c-2,11 -5,19 -10,22 -5,4 -14,6 -28,6 -18,0 -26,-6 -26,-18 0,-2 0,-5 1,-10l31 -267c1,-11 2,-20 2,-28 0,-37 -8,-55 -24,-57 -16,-1 -31,16 -45,51 -3,8 -6,13 -10,12 -6,0 -9,-6 -9,-17 0,-24 11,-51 31,-79 20,-29 40,-43 57,-43 29,0 44,38 44,113zm885 221c-63,84 -127,126 -193,126 -26,0 -48,-10 -64,-31 -17,-21 -25,-48 -25,-81 0,-44 10,-90 30,-140 20,-49 46,-92 78,-128 48,-53 98,-80 150,-80 19,0 39,3 61,11 8,2 14,4 19,4 11,0 24,-13 39,-39 8,-13 14,-19 19,-18 4,0 6,4 6,10 0,3 0,6 -1,10 -1,2 -3,13 -7,31l-13 61c-7,35 -15,80 -22,135 -7,54 -11,92 -11,112 0,46 7,69 21,69 8,0 17,-6 28,-18 12,-13 20,-26 26,-40 5,-12 11,-18 17,-18 6,0 9,3 9,11 0,24 -14,52 -43,85 -29,33 -53,50 -73,50 -15,0 -25,-9 -32,-25 -7,-17 -13,-49 -19,-97zm-23 -310c-38,0 -74,22 -109,67 -22,29 -41,66 -57,111 -16,45 -24,84 -24,119 0,56 24,83 72,83 30,0 61,-16 92,-50 32,-34 50,-69 54,-107 3,-21 6,-38 9,-52l10 -50c5,-28 10,-47 12,-57 3,-10 4,-19 4,-27 0,-10 -6,-18 -20,-26 -13,-7 -27,-11 -43,-11z"/>
 </g>
</svg>
